<svg width="300" height="300" viewBox="0 0 300 300" fill="none" xmlns="http://www.w3.org/2000/svg">
<circle cx="150" cy="150" r="150" fill="black"/>
<path fill-rule="evenodd" clip-rule="evenodd" d="M300 150C300 232.843 232.843 300 150 300C67.1573 300 0 232.843 0 150C0 67.1573 67.1573 0 150 0C232.843 0 300 67.1573 300 150ZM295 150C295 230.081 230.081 295 150 295C69.9187 295 5 230.081 5 150C5 69.9187 69.9187 5 150 5C230.081 5 295 69.9187 295 150ZM150 33C137.413 33 125.29 34.9877 113.928 38.6663L109.652 25.468C122.51 21.2699 136.24 19 150.5 19L150.447 33.0008C150.298 33.0003 150.149 33 150 33ZM60.8103 54.3328C74.4134 41.6405 90.7121 31.8002 108.754 25.7647L113.125 38.9296C96.973 44.2892 82.3832 53.0735 70.2161 64.4218L60.8103 54.3328ZM69.5337 65.0633C69.1503 65.4267 68.7693 65.7926 68.3909 66.1611L58.7701 56.2774C59.1931 55.8655 59.6189 55.4564 60.0475 55.0501L69.5337 65.0633ZM19 150.5C19 113.934 33.9244 80.8545 58.014 57.0196L67.7145 66.8249C46.2797 88.0318 33 117.465 33 150C33 214.617 85.3827 267 150 267C181.748 267 210.542 254.355 231.621 233.827L242.23 244.723C218.539 267.791 186.179 282 150.5 282C77.8746 282 19 223.125 19 150.5ZM242.983 243.983L232.288 233.173C247.912 217.714 259.203 197.884 264.176 175.667L278.908 178.979C273.361 204.099 260.632 226.522 242.983 243.983ZM279.137 177.921L264.381 174.731C265.586 169.132 266.39 163.384 266.762 157.519L281.762 158.485C281.365 165.108 280.478 171.598 279.137 177.921ZM281.817 157.49L266.815 156.637C266.938 154.44 267 152.227 267 150C267 127.136 260.442 105.804 249.104 87.7824L261.5 80V79.9619C274.48 100.345 282 124.544 282 150.5C282 152.845 281.939 155.175 281.817 157.49ZM260.916 79.0535L248.574 86.9481C235.449 66.4707 216.117 50.3523 193.234 41.2473L198.488 28.0308C224.254 38.1347 246.056 56.1349 260.916 79.0535ZM197.45 27.629L192.31 40.8844C184.796 37.9685 176.905 35.8066 168.731 34.4913L170.986 20.5863C180.156 22.0207 189.012 24.4027 197.45 27.629ZM170 20.5L167.86 34.3546C162.466 33.5283 156.95 33.0705 151.34 33.0075L151.5 19.0037C157.801 19.0506 163.996 19.5407 170.056 20.4442L170 20.5ZM134.62 183.621C131.019 189.867 122.104 195 114.903 195H85.1575C77.9567 195 74.9564 189.867 78.4711 183.621L143.02 70.6843C146.621 64.4386 152.45 64.4386 156.05 70.6843L171.395 97.5495C174.995 103.795 174.909 114.062 171.309 120.308L134.62 183.621ZM213.828 195H170.109C162.908 195 159.908 189.867 163.508 183.621L185.625 145.376C189.225 139.131 195.14 139.131 198.74 145.376L220.514 183.535C224.029 189.867 221.114 195 213.828 195ZM149.894 8.99751L149.055 8.23943C148.961 8.15238 148.844 8.15734 148.779 8.1601L147.207 8.22686C147.077 8.23237 146.976 8.30173 146.939 8.34235L144.662 10.8072C144.575 10.902 144.567 11.0194 144.57 11.0843L144.64 12.7209C144.645 12.8508 144.727 12.9513 144.768 12.9887L147.244 15.2256C147.339 15.3126 147.457 15.3466 147.522 15.3439L149.081 15.2777C149.211 15.2722 149.312 15.2028 149.362 15.1487L150.119 14.2837L149.524 13.7625L148.879 14.5056L147.645 14.558L145.412 12.5189L145.356 11.2071L147.396 8.98655L148.655 8.93303L149.372 9.56619L149.894 8.99751ZM138.316 15.8411L137.553 15.915L136.868 8.83697L137.632 8.76314L141.869 12.3369L141.488 8.39027L142.251 8.31645L142.936 15.3944L142.172 15.4683L141.985 13.5273L137.743 9.91477L138.316 15.8411ZM129.861 14.2895L133.676 13.6972L134.065 16.2022L134.836 16.0825L134.165 11.7662C134.155 11.702 134.125 11.5884 134.021 11.5124L131.358 9.53141C131.284 9.47715 131.173 9.44172 131.045 9.46166C130.968 9.47363 130.869 9.51527 130.806 9.61716L128.893 12.2953C128.861 12.3398 128.799 12.4546 128.817 12.5702L129.492 16.9122L130.249 16.7945L129.861 14.2895ZM129.762 13.5681L129.614 12.6175L131.205 10.4103L133.419 12.04L133.564 12.9778L129.762 13.5681ZM122.688 18.1309L121.258 11.1518L121.971 11.0018L123.278 17.2096L127.819 16.2532L127.98 17.0164L122.688 18.1309ZM115.142 17.2884L118.868 16.2785L119.531 18.7253L120.284 18.5213L119.142 14.3053C119.125 14.2426 119.081 14.1331 118.97 14.069L116.105 12.3941C116.025 12.3483 115.911 12.3253 115.786 12.3593C115.711 12.3797 115.617 12.432 115.565 12.5403L113.96 15.4132C113.933 15.461 113.884 15.5818 113.915 15.6948L115.064 19.9358L115.805 19.7352L115.142 17.2884ZM114.964 16.5824L114.712 15.6539L116.05 13.2844L118.43 14.6599L118.678 15.5759L114.964 16.5824ZM107.156 14.8186L107.497 15.856L110.741 19.6886L111.156 14.6667L110.811 13.617L111.552 13.3734L111.922 14.4973C111.938 14.5467 111.942 14.6001 111.946 14.6536L111.448 20.6741C111.431 20.8303 111.336 20.9573 111.175 21.0101C111.015 21.0629 110.863 21.017 110.756 20.9014L106.829 16.3219C106.826 16.3175 106.822 16.3135 106.82 16.3098L106.812 16.3006C106.811 16.298 106.809 16.2956 106.807 16.2932C106.805 16.2897 106.803 16.2863 106.802 16.2827C106.797 16.2673 106.795 16.2508 106.793 16.2344C106.791 16.2179 106.789 16.2015 106.784 16.186L106.415 15.0622L107.156 14.8186ZM104.827 20.3289L101.233 21.7394L102.159 24.0992L101.445 24.3794L99.8397 20.289C99.797 20.1801 99.8316 20.0548 99.8536 20.0043L101.136 16.9733C101.175 16.8601 101.263 16.7979 101.335 16.7694C101.456 16.7219 101.572 16.7323 101.656 16.7691L104.687 18.1215C104.805 18.173 104.86 18.2771 104.883 18.3377L106.479 22.4038L105.753 22.6887L104.827 20.3289ZM100.628 20.1614L100.979 21.0569L104.561 19.6512L104.214 18.7678L101.699 17.6602L100.628 20.1614ZM152.675 15.3744L152.784 8.2642L153.551 8.27605L153.503 11.4087L157.376 11.4685L157.425 8.33586L158.192 8.3477L158.082 15.4579L157.315 15.446L157.365 12.1964L153.492 12.1366L153.442 15.3862L152.675 15.3744ZM160.468 8.60495L159.973 15.7248L165.368 16.1L165.422 15.3219L160.792 14.9999L160.96 12.5877L164.046 12.8024L164.101 12.0113L161.015 11.7966L161.178 9.44926L165.808 9.77127L165.863 8.98018L160.468 8.60495ZM180.036 16.0195L176.238 15.3252L175.782 17.8188L175.027 17.6809L175.817 13.3585C175.838 13.2434 175.934 13.1552 175.979 13.1238L178.666 11.223C178.759 11.1475 178.866 11.1406 178.943 11.1547C179.071 11.178 179.164 11.2479 179.216 11.3235L181.079 14.0694C181.152 14.1753 181.144 14.2928 181.133 14.3567L180.347 18.6535L179.58 18.5132L180.036 16.0195ZM176.554 13.6651L176.381 14.6114L180.167 15.3034L180.337 14.3699L178.782 12.1033L176.554 13.6651ZM183.892 13.434L184.145 12.3718L183.387 12.1908L183.112 13.3415C183.108 13.3573 183.101 13.3723 183.094 13.3874C183.087 13.4024 183.08 13.4175 183.077 13.4333C183.075 13.4388 183.075 13.4446 183.076 13.4511C183.076 13.4551 183.076 13.4593 183.077 13.4639L183.077 13.4649L183.077 13.4651L183.077 13.4654L183.077 13.4657L183.079 13.4806L184.022 19.4393C184.053 19.5935 184.158 19.7122 184.322 19.7514C184.487 19.7907 184.634 19.7323 184.731 19.6083L188.311 14.7424C188.336 14.6948 188.36 14.6473 188.372 14.5967L188.647 13.446L187.888 13.265L187.632 14.3398L184.645 18.3984L183.892 13.434ZM194.407 20.0683L190.709 18.96L189.981 21.3883L189.246 21.1681L190.508 16.9591C190.541 16.847 190.646 16.7697 190.694 16.7436L193.574 15.1501C193.675 15.0853 193.782 15.0903 193.856 15.1127C193.981 15.15 194.066 15.2297 194.109 15.3106L195.659 18.245C195.72 18.3583 195.699 18.4741 195.68 18.5364L194.427 22.7205L193.679 22.4966L194.407 20.0683ZM191.206 17.3448L190.93 18.2664L194.616 19.3709L194.888 18.4619L193.593 16.0379L191.206 17.3448ZM200.072 21.6904L201.223 24.237L200.882 25.1781L201.615 25.4439L202.01 24.3561C202.045 24.2583 202.039 24.1595 201.993 24.0596L200.788 21.3553L203.441 20.063C203.541 20.0162 203.609 19.944 203.644 19.8462L204.038 18.7584L203.305 18.4926L202.964 19.4337L200.461 20.6559L199.363 18.1148L199.704 17.1737L198.971 16.9079L198.576 17.9957C198.541 18.0935 198.547 18.1923 198.593 18.2922L199.745 20.991L197.145 22.2888C197.045 22.3356 196.977 22.4078 196.942 22.5056L196.548 23.5934L197.281 23.8592L197.622 22.9181L200.072 21.6904ZM284.799 175.566L285.375 171.748L282.868 171.37L282.982 170.611L287.327 171.266C287.443 171.284 287.534 171.376 287.567 171.421L289.55 174.047C289.629 174.138 289.639 174.244 289.627 174.321C289.608 174.45 289.541 174.545 289.467 174.6L286.781 176.548C286.677 176.624 286.559 176.62 286.495 176.61L282.176 175.959L282.292 175.188L284.799 175.566ZM287.044 172.012L286.092 171.869L285.519 175.674L286.457 175.816L288.674 174.191L287.044 172.012ZM288.407 180.337L287.338 180.114L282.396 181.007L286.538 183.878L287.619 184.104L287.46 184.868L286.302 184.626C286.278 184.621 286.254 184.613 286.231 184.603C286.205 184.593 286.18 184.58 286.155 184.568L281.189 181.127C281.063 181.034 281 180.888 281.035 180.723C281.069 180.557 281.185 180.449 281.338 180.414L287.268 179.303L287.283 179.301L287.284 179.301C287.291 179.3 287.297 179.299 287.303 179.298C287.308 179.298 287.311 179.298 287.315 179.299C287.32 179.3 287.324 179.301 287.328 179.303L287.333 179.304C287.34 179.307 287.347 179.309 287.353 179.312L287.362 179.316L287.375 179.321C287.386 179.326 287.397 179.33 287.408 179.332L288.566 179.574L288.407 180.337ZM282.275 186.019L281.286 189.751L278.836 189.102L278.636 189.856L282.858 190.974C282.921 190.991 283.037 191.008 283.149 190.944L286.032 189.3C286.111 189.254 286.188 189.167 286.221 189.041C286.241 188.966 286.243 188.858 286.175 188.76L284.49 185.933C284.462 185.885 284.381 185.783 284.268 185.753L280.021 184.628L279.824 185.369L282.275 186.019ZM282.975 186.218L283.905 186.464L285.288 188.807L282.907 190.18L281.99 189.937L282.975 186.218ZM277.772 192.133L284.531 194.384L284.305 195.076L278.275 193.104L276.832 197.515L276.091 197.273L277.772 192.133ZM277.512 200.265L276.118 203.865L273.754 202.95L273.472 203.677L277.545 205.255C277.606 205.278 277.72 205.308 277.837 205.256L280.884 203.941C280.968 203.904 281.054 203.826 281.101 203.705C281.129 203.632 281.143 203.525 281.086 203.42L279.723 200.424C279.701 200.374 279.632 200.264 279.523 200.221L275.426 198.634L275.149 199.349L277.512 200.265ZM278.187 200.54L279.084 200.888L280.199 203.369L277.681 204.471L276.797 204.128L278.187 200.54ZM271.941 206.812L272.259 206.114L278.731 209.06L278.413 209.758L273.199 211.641L276.808 213.284L276.49 213.982L270.018 211.036L270.336 210.338L272.11 211.146L277.36 209.279L271.941 206.812ZM272.079 220.261L273.155 219.913C273.277 219.875 273.331 219.771 273.362 219.713L274.09 218.319C274.15 218.204 274.14 218.081 274.124 218.029L273.127 214.825C273.089 214.702 272.991 214.636 272.933 214.606L271.481 213.848C271.366 213.788 271.238 213.809 271.185 213.826L268.01 214.852C267.887 214.89 267.798 214.976 267.768 215.033L267.046 216.416C266.986 216.531 266.996 216.654 267.018 216.724L267.388 217.812L268.137 217.558L267.816 216.627L268.388 215.533L271.27 214.618L272.434 215.226L273.337 218.102L272.754 219.22L271.847 219.524L272.079 220.261ZM265.166 219.48L271.269 223.13L270.875 223.788L268.186 222.18L266.198 225.505L268.886 227.113L268.493 227.771L262.39 224.121L262.784 223.463L265.573 225.131L267.561 221.807L264.772 220.138L265.166 219.48ZM267.132 229.614L261.213 225.625L258.191 230.11L258.838 230.546L261.432 226.697L263.437 228.049L261.707 230.614L262.365 231.057L264.094 228.492L266.045 229.807L263.452 233.655L264.109 234.099L267.132 229.614ZM250.927 242.853L253.427 239.911L251.495 238.269L251.992 237.685L255.34 240.53C255.429 240.606 255.458 240.733 255.463 240.788L255.765 244.065C255.784 244.183 255.737 244.279 255.686 244.339C255.602 244.438 255.495 244.483 255.403 244.491L252.094 244.732C251.965 244.742 251.868 244.676 251.818 244.634L248.49 241.805L248.995 241.211L250.927 242.853ZM254.706 241.015L253.973 240.392L251.481 243.324L252.204 243.939L254.945 243.726L254.706 241.015ZM251.238 247.485L252.031 248.236L252.567 247.669L251.708 246.856C251.696 246.845 251.686 246.831 251.677 246.818C251.667 246.804 251.658 246.791 251.646 246.78C251.641 246.775 251.635 246.772 251.628 246.769C251.621 246.765 251.613 246.762 251.604 246.758L245.972 244.596C245.823 244.545 245.668 244.576 245.551 244.699C245.435 244.822 245.412 244.979 245.471 245.124L247.895 250.658L247.914 250.687C247.919 250.695 247.924 250.702 247.929 250.71C247.935 250.718 247.941 250.727 247.947 250.735C247.961 250.753 247.975 250.769 247.99 250.784L248.85 251.597L249.386 251.031L248.583 250.271L246.562 245.655L251.238 247.485ZM240.235 253.274L243.044 250.626L241.305 248.781L241.863 248.255L244.877 251.452C244.957 251.537 244.972 251.666 244.97 251.721L244.91 255.012C244.916 255.132 244.858 255.222 244.802 255.275C244.707 255.365 244.596 255.398 244.504 255.395L241.188 255.27C241.059 255.267 240.969 255.191 240.925 255.143L237.928 251.965L238.495 251.43L240.235 253.274ZM244.194 251.864L243.534 251.164L240.734 253.804L241.385 254.495L244.132 254.584L244.194 251.864ZM235.997 257.369L233.216 257.093L232.572 256.327L231.975 256.829L232.72 257.715C232.787 257.794 232.875 257.839 232.985 257.848L235.93 258.157L235.722 261.101C235.713 261.211 235.741 261.305 235.808 261.385L236.553 262.27L237.15 261.768L236.506 261.002L236.699 258.223L239.448 258.543L240.093 259.309L240.69 258.807L239.945 257.921C239.878 257.842 239.789 257.797 239.68 257.788L236.767 257.436L236.943 254.535C236.952 254.425 236.923 254.331 236.856 254.251L236.111 253.366L235.515 253.868L236.159 254.634L235.997 257.369ZM15.5606 168.372L13.9308 170.642L16.2189 172.15L17.2045 171.975L17.341 172.743L16.2018 172.945C16.0994 172.964 16.003 172.941 15.9126 172.878L13.4887 171.275L11.7272 173.622C11.664 173.712 11.5812 173.767 11.4788 173.785L10.3397 173.987L10.2032 173.219L11.1888 173.044L12.8405 170.823L10.5305 169.266L9.54491 169.441L9.40842 168.673L10.5476 168.471C10.65 168.453 10.7464 168.475 10.8368 168.538L13.2826 170.19L15.0222 167.794C15.0854 167.704 15.1682 167.65 15.2705 167.631L16.4097 167.429L16.5462 168.197L15.5606 168.372ZM16.2478 180.116L15.3584 176.359L17.8252 175.775L17.6456 175.016L13.395 176.022C13.3318 176.037 13.2209 176.077 13.1533 176.187L11.387 178.996C11.3387 179.074 11.3121 179.187 11.342 179.314C11.36 179.39 11.4093 179.485 11.5158 179.54L14.3356 181.237C14.3825 181.266 14.5017 181.318 14.6155 181.291L18.8913 180.279L18.7147 179.532L16.2478 180.116ZM15.5364 180.271L14.6003 180.493L12.2752 179.08L13.7265 176.745L14.65 176.527L15.5364 180.271ZM13.824 189.094L14.8706 188.783L18.7932 185.648L13.785 185.091L12.726 185.406L12.5034 184.659L13.6372 184.321C13.6871 184.306 13.7406 184.304 13.7942 184.302L19.7983 184.969C19.9539 184.991 20.0782 185.089 20.1264 185.251C20.1746 185.413 20.1245 185.564 20.006 185.667L15.3174 189.464C15.3129 189.467 15.3088 189.47 15.3051 189.473C15.2948 189.48 15.2866 189.486 15.2775 189.489C15.2619 189.494 15.2454 189.495 15.2289 189.497C15.2124 189.498 15.1959 189.5 15.1803 189.504L14.0465 189.842L13.824 189.094ZM20.3355 194.466L19.0378 190.83L21.4253 189.978L21.1632 189.243L17.0493 190.711C16.9881 190.733 16.8822 190.784 16.8271 190.901L15.3809 193.888C15.3415 193.971 15.3275 194.086 15.3712 194.209C15.3974 194.282 15.4568 194.371 15.5687 194.414L18.5582 195.79C18.6081 195.814 18.7322 195.853 18.8424 195.813L22.9808 194.336L22.723 193.614L20.3355 194.466ZM19.6455 194.698L18.7394 195.022L16.2728 193.873L17.4584 191.393L18.3522 191.074L19.6455 194.698ZM28.8139 208.352L22.4004 211.483L20.0279 206.623L20.7405 206.275L22.7765 210.446L24.891 209.414L23.5337 206.633L24.2463 206.285L25.6036 209.066L27.7765 208.005L25.7405 203.834L26.4414 203.492L28.8139 208.352ZM25.9471 218.308L32.1596 214.848L31.7864 214.177L28.947 215.759L27.0621 212.374L29.9014 210.793L29.5282 210.123L23.3157 213.583L23.6889 214.253L26.426 212.729L28.311 216.113L25.5739 217.637L25.9471 218.308ZM27.7902 221.549L28.0273 220.444L28.7809 220.612L28.5908 221.549L29.2671 222.613L32.21 223.269L33.3182 222.565L33.9673 219.611L33.3049 218.569L32.3389 218.382L32.493 217.606L33.6205 217.829C33.6923 217.845 33.8029 217.898 33.8726 218.008L34.7093 219.325C34.7441 219.38 34.774 219.499 34.746 219.625L34.0468 222.888C34.0348 222.942 33.9889 223.063 33.8791 223.133L32.4966 224.011C32.4418 224.046 32.336 224.098 32.2104 224.07L28.9376 223.331C28.8838 223.319 28.7731 223.266 28.7034 223.156L27.8598 221.829C27.8249 221.774 27.7622 221.675 27.7902 221.549ZM40.1886 227.673L39.743 227.049L34.8971 230.508L35.905 225.029L37.4921 223.896L37.0464 223.272L31.2589 227.403L31.7045 228.028L34.9316 225.724L33.9555 231.181L34.4011 231.805L40.1886 227.673ZM40.2065 232.139L42.6271 235.147L44.602 233.558L45.0829 234.156L41.6597 236.91C41.5685 236.984 41.4386 236.988 41.3837 236.982L38.108 236.665C37.9882 236.661 37.9028 236.596 37.8539 236.536C37.7724 236.434 37.7477 236.321 37.7576 236.229L38.1419 232.933C38.1558 232.805 38.2388 232.722 38.2894 232.681L41.6924 229.943L42.1814 230.55L40.2065 232.139ZM41.3023 236.197L42.0518 235.594L39.6393 232.596L38.9 233.191L38.5952 235.922L41.3023 236.197ZM44.2109 244.166L49.54 239.438L45.9289 235.413L45.3483 235.933L48.4472 239.388L43.7248 243.624L44.2109 244.166ZM49.8458 243.673L52.5837 246.395L54.3711 244.597L54.915 245.138L51.8168 248.254C51.7343 248.337 51.6057 248.356 51.5505 248.356L48.2598 248.402C48.1403 248.412 48.0482 248.357 47.9929 248.302C47.9007 248.21 47.8636 248.1 47.8634 248.008L47.8815 244.689C47.8812 244.561 47.9544 244.469 48.0003 244.422L51.0801 241.325L51.6332 241.875L49.8458 243.673ZM51.3829 247.584L52.0612 246.902L49.3325 244.189L48.6634 244.862L48.662 247.61L51.3829 247.584ZM55.1656 253.732L54.4377 254.546L55.0191 255.066L55.8077 254.184C55.8102 254.181 55.8129 254.178 55.8156 254.176L55.8221 254.17L55.8261 254.167C55.8323 254.162 55.8386 254.157 55.845 254.152C55.8583 254.142 55.8716 254.132 55.8824 254.12C55.8862 254.116 55.889 254.111 55.8917 254.105C55.8936 254.101 55.8953 254.096 55.8972 254.091C55.899 254.087 55.9008 254.082 55.903 254.077L57.9053 248.386C57.9522 248.236 57.9159 248.082 57.7899 247.969C57.6639 247.857 57.5064 247.838 57.3626 247.901L51.8998 250.48C51.8554 250.51 51.8111 250.54 51.7764 250.579L50.9878 251.461L51.5693 251.981L52.3058 251.157L56.8627 249.006L55.1656 253.732ZM63.3927 256.215L60.3742 253.808L61.9548 251.826L61.345 251.339L58.6214 254.754C58.5809 254.805 58.5181 254.905 58.5325 255.033L58.8766 258.333C58.8868 258.425 58.9357 258.53 59.0374 258.611C59.0983 258.66 59.1959 258.704 59.3136 258.682L62.5797 258.277C62.6345 258.271 62.7603 258.238 62.8332 258.147L65.573 254.711L64.9733 254.233L63.3927 256.215ZM62.9286 256.776L62.3288 257.528L59.627 257.851L59.3285 255.119L59.9202 254.377L62.9286 256.776ZM108.112 285.506L110.358 278.759L109.63 278.517L108.604 281.601L104.928 280.377L105.955 277.294L105.227 277.051L102.981 283.798L103.709 284.04L104.698 281.068L108.374 282.292L107.384 285.264L108.112 285.506ZM193.703 280.834L193.475 280.143L191.993 280.63L191.453 278.987L193.133 278.435L194.803 279.268L195.708 282.022L194.866 283.708L193.693 284.094L192.606 283.535L192.246 284.228L193.48 284.862C193.595 284.92 193.723 284.892 193.785 284.872L195.267 284.384C195.39 284.344 195.473 284.262 195.493 284.2L196.492 282.244C196.55 282.129 196.518 281.989 196.498 281.927L195.491 278.864C195.45 278.741 195.344 278.666 195.295 278.641L193.329 277.659C193.215 277.601 193.099 277.625 193.038 277.645L190.477 278.473L191.265 280.869L190.536 281.109L190.763 281.8L193.703 280.834ZM189.659 286.189L187.818 279.293L182.593 280.688L182.794 281.441L187.278 280.245L187.902 282.581L184.913 283.379L185.117 284.145L188.106 283.347L188.713 285.62L184.229 286.817L184.434 287.583L189.659 286.189ZM179.868 281.343L180.619 281.185L182.084 288.143L181.334 288.301L176.726 285.219L177.543 289.099L176.792 289.257L175.327 282.299L176.077 282.141L176.479 284.049L181.095 287.169L179.868 281.343ZM174.42 289.713L173.352 282.656L168.005 283.465L168.122 284.236L172.71 283.542L173.072 285.933L170.013 286.396L170.132 287.18L173.191 286.717L173.543 289.043L168.954 289.738L169.073 290.522L174.42 289.713ZM161.942 289.723L161.967 289.982L162.509 290.452L165.227 290.189L165.729 289.579L165.689 289.165L161.018 286.508C160.894 286.441 160.831 286.33 160.818 286.201L160.744 285.437C160.734 285.334 160.766 285.252 160.823 285.168L161.483 284.295C161.553 284.21 161.637 284.136 161.754 284.125L164.808 283.83C164.911 283.82 165.005 283.85 165.091 283.92L165.956 284.633C166.041 284.703 166.089 284.79 166.099 284.893L166.138 285.294L165.361 285.369L165.338 285.124L164.729 284.634L161.998 284.898L161.536 285.517L161.575 285.918L166.246 288.575C166.37 288.642 166.433 288.753 166.445 288.882L166.521 289.659C166.531 289.762 166.501 289.857 166.43 289.942L165.717 290.807C165.647 290.893 165.559 290.927 165.456 290.937L162.428 291.23C162.324 291.24 162.231 291.223 162.146 291.153L161.323 290.475C161.238 290.405 161.19 290.318 161.18 290.214L161.14 289.8L161.942 289.723ZM157.33 291.579L157.297 290.8L156.531 290.832L156.295 285.273L157.061 285.241L157.027 284.448L154.715 284.547L154.749 285.339L155.515 285.306L155.752 290.865L154.985 290.898L155.018 291.677L157.33 291.579ZM145.918 290.167L145.914 290.427L146.4 290.955L149.129 290.997L149.697 290.446L149.703 290.03L145.358 286.869C145.242 286.789 145.192 286.671 145.194 286.541L145.206 285.774C145.207 285.671 145.247 285.593 145.314 285.516L146.067 284.722C146.146 284.645 146.238 284.581 146.355 284.583L149.423 284.63C149.527 284.632 149.617 284.672 149.694 284.752L150.475 285.557C150.551 285.636 150.589 285.728 150.587 285.832L150.581 286.235L149.801 286.223L149.805 285.976L149.254 285.421L146.512 285.379L145.983 285.943L145.977 286.345L150.323 289.507C150.438 289.587 150.488 289.705 150.486 289.835L150.474 290.614C150.473 290.718 150.432 290.809 150.353 290.886L149.548 291.666C149.469 291.743 149.378 291.768 149.274 291.766L146.232 291.719C146.128 291.717 146.037 291.69 145.961 291.611L145.218 290.845C145.141 290.766 145.104 290.674 145.105 290.571L145.112 290.155L145.918 290.167ZM138.65 284.969L139.414 285.046L139.492 284.27L136.077 283.927C136.012 283.92 135.893 283.934 135.794 284.016L134.053 285.474C133.982 285.532 133.92 285.63 133.908 285.747C133.9 285.824 133.928 285.932 133.998 286.017L135.176 287.429L133.743 288.552C133.672 288.611 133.61 288.709 133.597 288.838C133.588 288.929 133.605 289.022 133.674 289.107L135.064 290.88C135.112 290.924 135.209 290.999 135.338 291.012L138.779 291.358L138.855 290.595L138.092 290.518L138.65 284.969ZM135.915 287.098L134.842 285.815L136.167 284.72L137.874 284.891L137.635 287.271L135.915 287.098ZM135.848 287.889L137.556 288.06L137.316 290.44L135.583 290.266L134.528 288.932L135.848 287.889ZM127.13 285.285L130.945 285.877L131.334 283.372L132.092 283.49L131.418 287.832C131.4 287.948 131.307 288.038 131.262 288.071L128.628 290.043C128.536 290.121 128.43 290.131 128.353 290.119C128.224 290.099 128.129 290.032 128.075 289.957L126.139 287.262C126.063 287.158 126.068 287.041 126.078 286.977L126.748 282.66L127.519 282.78L127.13 285.285ZM130.673 287.545L130.82 286.595L127.018 286.004L126.872 286.942L128.487 289.166L130.673 287.545ZM123.282 289.273L123.443 288.51L121.178 288.033L122.486 281.825L121.722 281.664L120.415 287.872L118.151 287.395L117.99 288.158L123.282 289.273ZM111.228 286.31L110.658 285.334L111.328 284.949L111.819 285.77L113.036 286.099L115.652 284.599L115.995 283.332L114.482 280.713L113.29 280.39L112.451 280.903L112.042 280.227L113.025 279.631C113.089 279.595 113.206 279.559 113.331 279.593L114.837 280.001C114.9 280.018 115.003 280.086 115.067 280.198L116.751 283.079C116.778 283.127 116.826 283.247 116.792 283.373L116.364 284.954C116.347 285.017 116.304 285.126 116.192 285.19L113.277 286.852C113.229 286.879 113.112 286.914 112.986 286.88L111.468 286.469C111.405 286.452 111.292 286.421 111.228 286.31ZM240.945 47.3197L241.43 46.777L243.737 48.8394L243.251 49.3821L242.68 48.8708L240.999 50.7508L239.001 48.9473C238.953 48.904 238.874 48.8163 238.867 48.6878L238.735 46.4948C238.732 46.4397 238.743 46.3102 238.83 46.2133L240.979 43.81C241.023 43.7616 241.128 43.6636 241.256 43.6564L243.45 43.5431C243.514 43.5304 243.626 43.5609 243.723 43.6476L244.886 44.6874C244.934 44.7308 245.022 44.8271 245.03 44.9556L245.098 46.342L244.317 46.3764L244.258 45.1552L243.338 44.332L241.457 44.4462L239.524 46.6072L239.637 48.4699L240.955 49.6484L242.108 48.3595L240.945 47.3197ZM243.038 52.6437L248.089 47.6019L251.91 51.4296L251.348 51.9898L248.07 48.705L246.405 50.3672L248.59 52.5571L248.029 53.1173L245.843 50.9274L244.132 52.6355L247.41 55.9204L246.858 56.4714L243.038 52.6437ZM248.276 57.9328L248.788 58.5038L253.22 54.5281L252.826 60.0855L251.375 61.3876L251.887 61.9585L257.18 57.2102L256.668 56.6393L253.716 59.2869L254.081 53.7555L253.569 53.1845L248.276 57.9328ZM253.183 63.4903L258.761 59.0372L262.135 63.2634L261.515 63.7582L258.619 60.1314L256.781 61.5995L258.711 64.0174L258.091 64.5122L256.161 62.0943L254.271 63.603L257.167 67.2298L256.558 67.7165L253.183 63.4903ZM265.22 69.6868L265.008 69.8379L265.476 70.4939L265.815 70.2522C265.9 70.1917 265.951 70.1071 265.969 69.9983L266.145 68.9466C266.163 68.8378 266.131 68.7486 266.071 68.6639L264.303 66.1881C264.243 66.1035 264.169 66.0445 264.06 66.0264L262.954 65.8417C262.845 65.8235 262.748 65.8447 262.664 65.9051L262.029 66.3583C261.923 66.4338 261.858 66.5441 261.863 66.6847L261.897 72.0586L261.569 72.2928L260.802 72.2019L259.208 69.9694L259.328 69.1972L259.529 69.0537L259.075 68.4189L258.747 68.653C258.663 68.7135 258.611 68.7981 258.593 68.9069L258.409 70.013C258.39 70.1218 258.412 70.2186 258.472 70.3032L260.255 72.8002C260.323 72.8954 260.428 72.9317 260.537 72.9499L261.624 73.0846C261.725 73.0922 261.811 73.0787 261.896 73.0182L262.52 72.5726C262.626 72.497 262.691 72.3867 262.686 72.2462L262.651 66.8723L262.99 66.6306L263.77 66.7607L265.356 68.9826L265.22 69.6868ZM268.263 73.3224L268.922 72.9041L270.163 74.8572L269.504 75.2755L269.093 74.6281L264.397 77.6121L264.808 78.2595L264.139 78.6848L262.898 76.7317L263.567 76.3064L263.979 76.9538L268.675 73.9698L268.263 73.3224ZM273.632 83.367L273.405 83.4935L273.797 84.1977L274.161 83.9953C274.252 83.9447 274.312 83.8663 274.342 83.7602L274.634 82.7346C274.664 82.6285 274.643 82.5364 274.592 82.4455L273.112 79.7879C273.062 79.697 272.995 79.6302 272.888 79.6L271.81 79.293C271.704 79.2628 271.605 79.273 271.514 79.3237L270.833 79.7032C270.719 79.7664 270.642 79.8688 270.631 80.009L270.066 85.3532L269.714 85.5493L268.961 85.3733L267.627 82.9769L267.832 82.2229L268.047 82.1027L267.668 81.4212L267.316 81.6173C267.225 81.6679 267.164 81.7463 267.134 81.8524L266.827 82.931C266.797 83.0371 266.807 83.1356 266.858 83.2265L268.351 85.9068C268.408 86.009 268.509 86.0569 268.615 86.0871L269.68 86.3423C269.779 86.3611 269.866 86.3572 269.957 86.3066L270.627 85.9334C270.741 85.8702 270.818 85.7678 270.829 85.6276L271.394 80.2834L271.758 80.081L272.518 80.2974L273.846 82.6824L273.632 83.367ZM272.223 91.6867L272.538 92.386L277.622 90.0948L277.307 89.3956L278.007 89.0805L279.427 92.2332C279.481 92.3517 279.464 92.4732 279.45 92.5367L278.609 94.6265C278.57 94.7297 278.498 94.7908 278.415 94.8281C278.296 94.8816 278.18 94.8769 278.094 94.8443L276.405 94.1653L275.771 95.8911C275.732 95.9942 275.653 96.0725 275.582 96.1046C275.475 96.1526 275.359 96.1479 275.273 96.1154L273.14 95.337C273.02 95.2914 272.948 95.1954 272.921 95.1361L271.511 92.0071L272.223 91.6867ZM275.174 95.2619L275.749 93.6908L275.039 92.1144L272.858 93.0971L273.563 94.6616L275.174 95.2619ZM275.762 91.7887L276.467 93.3532L278.03 93.9748L278.658 92.3942L277.943 90.806L275.762 91.7887ZM277.177 98.6052L278.571 102.205L276.207 103.121L276.489 103.849L280.562 102.271C280.623 102.247 280.727 102.193 280.779 102.075L282.145 99.0506C282.182 98.9665 282.193 98.8507 282.146 98.7295C282.118 98.6568 282.056 98.5692 281.943 98.5293L278.918 97.2337C278.867 97.2114 278.742 97.1762 278.633 97.2185L274.536 98.8057L274.813 99.5209L277.177 98.6052ZM277.86 98.3543L278.757 98.0069L281.254 99.0891L280.135 101.6L279.25 101.943L277.86 98.3543ZM283.207 103.786L283.949 103.544L285.63 108.684L284.888 108.927L284.169 106.727L278.139 108.699L277.897 107.957L283.927 105.986L283.207 103.786ZM286.849 116.446L287.409 115.464C287.474 115.353 287.444 115.24 287.428 115.177L287.025 113.656C286.991 113.531 286.902 113.447 286.854 113.419L283.958 111.725C283.847 111.661 283.73 111.678 283.667 111.695L282.084 112.114C281.958 112.147 281.878 112.249 281.85 112.297L280.197 115.196C280.133 115.307 280.125 115.43 280.142 115.493L280.541 117.001C280.574 117.127 280.664 117.211 280.727 117.248L281.735 117.801L282.116 117.108L281.252 116.638L280.936 115.444L282.447 112.825L283.716 112.489L286.323 114.004L286.646 115.222L286.182 116.058L286.849 116.446ZM281.306 119.993L288.272 118.565L288.426 119.316L285.357 119.945L286.135 123.74L289.204 123.111L289.358 123.862L282.392 125.291L282.238 124.539L285.422 123.887L284.644 120.092L281.46 120.744L281.306 119.993ZM53.6161 46.0125L58.3362 51.3311L58.9098 50.822L56.7526 48.3912L59.6501 45.8198L61.8074 48.2506L62.381 47.7415L57.661 42.4229L57.0873 42.932L59.1669 45.2753L56.2694 47.8467L54.1898 45.5034L53.6161 46.0125ZM51.3622 48.3097L52.4928 48.3037L52.4906 49.0759L51.5346 49.0915L50.6404 49.9806L50.6318 52.9957L51.5576 53.9268L54.5819 53.9262L55.4577 53.0554L55.4329 52.0717L56.2235 52.0556L56.2478 53.2047C56.2476 53.2783 56.2197 53.3977 56.1275 53.4893L55.0213 54.5893C54.9752 54.6351 54.8647 54.69 54.736 54.6896L51.3991 54.7077C51.344 54.7076 51.2154 54.6888 51.1237 54.5966L49.9687 53.4351C49.9229 53.389 49.8496 53.2969 49.85 53.1682L49.8687 49.813C49.8689 49.7578 49.8968 49.6384 49.989 49.5468L51.1044 48.4376C51.1505 48.3918 51.2335 48.3093 51.3622 48.3097ZM42.7693 57.2668L43.35 57.7877L44.8951 56.0651L49.6176 60.3013L50.1384 59.7206L45.416 55.4845L46.9611 53.762L46.3805 53.2411L42.7693 57.2668ZM44.299 62.5931L41.8784 65.6011L43.8533 67.1904L43.3725 67.7879L39.9492 65.0331C39.8581 64.9598 39.826 64.8338 39.82 64.779L39.4295 61.5112C39.4075 61.3933 39.4524 61.296 39.5013 61.2352C39.5828 61.134 39.6885 61.0855 39.7799 61.0757L43.0821 60.7461C43.21 60.7323 43.3093 60.7955 43.36 60.8362L46.7629 63.5747L46.2739 64.1824L44.299 62.5931ZM40.5699 64.5314L41.3194 65.1345L43.7318 62.1367L42.9925 61.5417L40.2589 61.8282L40.5699 64.5314ZM38.8118 72.728L38.3638 73.3506L38.9969 73.8062L41.0017 71.0207C41.0397 70.9679 41.0869 70.8578 41.0662 70.7307L40.6738 68.4942C40.659 68.4035 40.605 68.3005 40.51 68.2322C40.4467 68.1866 40.3395 68.1575 40.2306 68.1753L38.4191 68.4891L38.1626 66.6868C38.1478 66.5961 38.0938 66.4931 37.9882 66.4172C37.9144 66.364 37.8253 66.332 37.7165 66.3497L35.4863 66.6666C35.4242 66.6861 35.3107 66.7325 35.2348 66.838L33.2148 69.6446L33.8373 70.0927L34.2853 69.4702L38.8118 72.728ZM38.3361 69.2943L39.9843 69.0071L40.2699 70.7022L39.2675 72.095L37.326 70.6976L38.3361 69.2943ZM37.6848 68.8416L36.6824 70.2344L34.741 68.8371L35.7586 67.4232L37.4415 67.1769L37.6848 68.8416ZM30.677 76.423L30.4538 76.2896L29.754 76.4466L28.3527 78.7895L28.5455 79.5562L28.9025 79.7697L33.8132 77.5869C33.9402 77.5266 34.0673 77.542 34.1789 77.6087L34.8372 78.0024C34.9264 78.0558 34.9733 78.1293 35.0069 78.2252L35.3182 79.2748C35.3451 79.3818 35.3542 79.4933 35.2942 79.5937L33.7193 82.2266C33.6659 82.3159 33.5858 82.374 33.4788 82.4009L32.3912 82.6744C32.2842 82.7013 32.1861 82.688 32.0968 82.6346L31.751 82.4278L32.1513 81.7584L32.3633 81.8852L33.1188 81.6857L34.5269 79.3316L34.3029 78.5918L33.957 78.3849L29.0463 80.5677C28.9193 80.628 28.7922 80.6126 28.6806 80.5459L28.0112 80.1455C27.9219 80.0921 27.8639 80.0119 27.837 79.9049L27.5635 78.8173C27.5366 78.7104 27.561 78.6189 27.6144 78.5297L29.1758 75.919C29.2292 75.8298 29.2983 75.765 29.4052 75.7381L30.4394 75.4781C30.5463 75.4511 30.6444 75.4644 30.7337 75.5178L31.0907 75.7313L30.677 76.423ZM23.748 85.6005L24.4394 85.9615L24.7944 85.2816L29.7267 87.8566L29.3717 88.5365L30.0747 88.9035L31.1456 86.8522L30.4426 86.4852L30.0877 87.1652L25.1554 84.5902L25.5103 83.9102L24.8189 83.5493L23.748 85.6005ZM23.0494 90.5229L22.8128 90.4152L22.1348 90.6493L21.0037 93.134L21.2809 93.8744L21.6595 94.0467L26.296 91.3295C26.4154 91.2554 26.5435 91.2565 26.6618 91.3104L27.3598 91.6282C27.4545 91.6713 27.5093 91.7391 27.5534 91.8305L27.9799 92.8389C28.0186 92.9422 28.0401 93.052 27.9916 93.1584L26.7204 95.9507C26.6774 96.0454 26.6042 96.112 26.5008 96.1507L25.4506 96.5439C25.3472 96.5826 25.2483 96.5803 25.1536 96.5373L24.7868 96.3703L25.11 95.6604L25.3348 95.7627L26.0633 95.4802L27.1998 92.9837L26.8947 92.2734L26.5279 92.1065L21.8914 94.8236C21.772 94.8978 21.6439 94.8967 21.5256 94.8428L20.8157 94.5196C20.7211 94.4765 20.6544 94.4033 20.6157 94.3L20.2225 93.2497C20.1839 93.1464 20.1979 93.0528 20.241 92.9582L21.5014 90.1896C21.5445 90.0949 21.6058 90.0229 21.7091 89.9842L22.7078 89.6104C22.8111 89.5717 22.9101 89.5739 23.0047 89.617L23.3833 89.7894L23.0494 90.5229ZM16.8195 101.334L23.4647 103.937L25.4375 98.9021L24.7112 98.6175L23.0182 102.939L20.7669 102.057L21.8955 99.1759L21.1572 98.8866L20.0285 101.767L17.8376 100.909L19.5307 96.5878L18.7923 96.2985L16.8195 101.334ZM21.3439 110.237L21.1055 110.966L14.3467 108.756L14.5851 108.027L19.5578 105.577L15.7891 104.345L16.0275 103.616L22.7863 105.826L22.548 106.555L20.6945 105.949L15.6848 108.387L21.3439 110.237ZM12.2518 116.293L19.1439 118.147L20.5486 112.924L19.7953 112.722L18.5899 117.203L16.2549 116.575L17.0585 113.588L16.2927 113.382L15.4891 116.369L13.2168 115.758L14.4223 111.277L13.6565 111.071L12.2518 116.293ZM14.867 122.472L15.5796 122.621L15.8987 121.094L17.5912 121.448L17.2295 123.179L15.673 124.208L12.8353 123.615L11.7959 122.043L12.0485 120.834L13.0766 120.173L12.6565 119.514L11.4899 120.266C11.3822 120.336 11.3429 120.461 11.3296 120.525L11.0105 122.052C10.9839 122.179 11.0136 122.291 11.0565 122.34L12.2517 124.184C12.3221 124.291 12.4594 124.333 12.5231 124.347L15.6789 125.006C15.8061 125.033 15.9239 124.978 15.9701 124.947L17.8034 123.737C17.9111 123.666 17.9478 123.554 17.9611 123.491L18.5243 120.859L16.0556 120.344L16.2125 119.593L15.4999 119.444L14.867 122.472ZM42.111 154.941L41.1121 154.987C43.7188 212.871 91.4724 259 150 259C208.534 259 256.292 212.861 258.889 154.968L257.89 154.923C255.316 212.285 207.997 258 150 258C92.0094 258 44.6938 212.295 42.111 154.941ZM44.109 154.85C46.6439 211.141 93.0833 256 150 256C206.923 256 253.366 211.131 255.892 154.832L254.893 154.786C252.391 210.554 206.386 255 150 255C93.6202 255 47.619 210.564 45.108 154.804L44.109 154.85ZM252.895 154.695L251.896 154.649C249.466 208.824 204.775 252 150 252C95.2311 252 50.5442 208.834 48.1049 154.667L47.1059 154.713C49.5691 209.411 94.6941 253 150 253C205.312 253 250.441 209.401 252.895 154.695ZM164.761 40.8848L164.091 48.7603L161.345 48.5268C161.293 48.5224 161.165 48.4984 161.082 48.4L159.622 46.6972C159.587 46.655 159.518 46.5448 159.529 46.4152L159.664 44.822C159.67 44.7572 159.706 44.6428 159.804 44.5599L161.492 43.1247C161.534 43.0892 161.631 43.0192 161.761 43.0302L163.781 43.2021L163.984 40.8187L164.761 40.8848ZM161.565 47.7887L163.378 47.9429L163.716 43.9663L161.864 43.8088L160.415 45.0424L160.306 46.3248L161.565 47.7887ZM132.559 43.4356L131.395 45.3546L131.599 46.3214L130.823 46.4848L130.619 45.518L128.799 44.254L129.988 49.9021L129.225 50.0629L127.842 43.4989C127.808 43.3335 127.87 43.1875 128.009 43.0918C128.055 43.0556 128.09 43.0349 128.141 43.0241C128.23 43.0054 128.343 43.0348 128.435 43.0951L130.838 44.7279L132.424 42.2284C132.484 42.136 132.581 42.0892 132.67 42.0704C132.686 42.0671 132.701 42.0605 132.716 42.054C132.731 42.0475 132.747 42.0409 132.762 42.0376C132.768 42.0364 132.774 42.0365 132.78 42.0371L132.785 42.0376L132.795 42.0389L132.795 42.0389C132.799 42.0396 132.804 42.0403 132.81 42.0409C132.976 42.0724 133.094 42.1936 133.129 42.3589L134.517 48.9484L133.754 49.1091L132.559 43.4356ZM124.152 48.9179L126.626 50.2766L126.694 50.514L127.444 50.2986L127.329 49.8988C127.3 49.7989 127.237 49.7222 127.141 49.6687L124.523 48.2298L125.981 45.633C126.035 45.5365 126.043 45.4258 126.015 45.3258L125.907 44.951L125.157 45.1664L125.229 45.4163L123.847 47.8558L121.381 46.5221L121.309 46.2722L120.559 46.4876L120.667 46.8624C120.696 46.9624 120.749 47.0551 120.846 47.1086L123.464 48.5475L122.006 51.1443C121.952 51.2408 121.952 51.3354 121.981 51.4354L122.096 51.8352L122.846 51.6198L122.777 51.3824L124.152 48.9179ZM117.27 45.7975L118.3 46.2645L117.975 46.9651L117.1 46.5798L115.916 47.0139L114.649 49.7496L115.101 50.9823L117.848 52.2456L119.008 51.8204L119.396 50.9164L120.121 51.2321L119.663 52.2862C119.632 52.3529 119.557 52.4498 119.435 52.4945L117.97 53.0316C117.909 53.054 117.786 53.0576 117.669 53.0035L114.63 51.6256C114.58 51.6024 114.471 51.5316 114.426 51.4095L113.862 49.8717C113.84 49.8106 113.812 49.6963 113.866 49.5795L115.285 46.5392C115.308 46.4891 115.384 46.3923 115.506 46.3475L116.983 45.806C117.044 45.7836 117.153 45.7433 117.27 45.7975ZM111.994 53.1719L112.858 55.0927L112.61 55.7458L110.985 56.4762L110.143 56.1564L109.869 56.8783L110.866 57.2568C110.969 57.2959 111.08 57.2889 111.163 57.2515L113.072 56.3933C113.167 56.3506 113.252 56.2552 113.273 56.1746L113.638 55.2121C113.677 55.109 113.67 54.9981 113.633 54.9151L111.655 50.5163C111.613 50.4214 111.517 50.3361 111.437 50.3153L110.383 49.9053C110.28 49.8662 110.174 49.8851 110.091 49.9224L108.301 50.7274C108.206 50.77 108.115 50.8536 108.094 50.9342L107.31 53.0257C107.271 53.1289 107.278 53.2397 107.315 53.3227L107.673 54.1171C107.715 54.212 107.811 54.2974 107.891 54.3181L109.919 55.0882C110.022 55.1273 110.133 55.1203 110.216 55.0829L111.343 54.5765C111.438 54.5339 111.523 54.4385 111.544 54.3579L111.994 53.1719ZM111.546 52.176L110.881 53.9291L110.039 54.3076L108.32 53.655L108.091 53.1451L108.763 51.3748L110.269 50.6978L111.008 50.9784L111.546 52.176ZM103.202 52.6691L102.634 54.8402L103.105 55.7088L102.408 56.0867L101.937 55.2181L99.8317 54.5257L102.582 59.6002L101.897 59.9718L98.6999 54.0745C98.6194 53.9259 98.6374 53.7682 98.7436 53.6368C98.7769 53.5891 98.805 53.5591 98.8508 53.5343C98.9308 53.491 99.047 53.4871 99.1527 53.5185L101.922 54.3984L102.729 51.5504C102.76 51.4447 102.839 51.3723 102.919 51.3289L102.926 51.325C102.93 51.3229 102.933 51.3207 102.936 51.3184C102.944 51.3127 102.952 51.3063 102.959 51.3L102.959 51.2999C102.972 51.2893 102.985 51.2788 102.999 51.271C103.007 51.2665 103.017 51.265 103.03 51.2631C103.035 51.2625 103.04 51.2617 103.045 51.2608C103.213 51.2436 103.361 51.3259 103.442 51.4745L106.651 57.3947L105.965 57.7664L103.202 52.6691ZM92.1278 57.4216L95.9191 63.453L100.482 60.5499L100.063 59.8918L96.1475 62.3832L92.742 57.0308L92.1278 57.4216ZM87.9012 62.1257L90.099 60.5061L94.2749 66.1166L94.911 65.6431L95.3923 66.2897L94.12 67.2366L92.7255 65.3413L91.1195 66.5367C91.0152 66.6143 90.8957 66.606 90.8411 66.598L88.6505 66.2676C88.5232 66.249 88.4324 66.1706 88.3936 66.1185L87.47 64.8775C87.3923 64.7732 87.3928 64.6432 87.4008 64.5887L87.7443 62.3721C87.763 62.2448 87.8595 62.1567 87.9012 62.1257ZM92.2571 64.7338L89.9053 61.574L88.4766 62.6374L88.1784 64.5447L88.9158 65.5354L90.7971 65.8205L92.2571 64.7338ZM83.7775 68.1564L84.8496 67.2299C84.9283 67.1619 84.9717 67.0728 84.9797 66.9628L85.05 65.8712C85.058 65.7611 85.028 65.6668 84.96 65.5881L83.9144 64.3783C83.8464 64.2996 83.7574 64.2563 83.6474 64.2483L82.5374 64.1766C82.4274 64.1686 82.333 64.1986 82.2543 64.2666L79.0577 67.0293L83.7075 72.4094L84.2878 71.9079L82.2137 69.508L82.9317 68.8875L87.0998 69.2371L87.2188 69.3748L87.7991 68.8732L87.5271 68.5585C87.4591 68.4798 87.3701 68.4365 87.2601 68.4285L83.7775 68.1564ZM81.7036 68.9178L80.148 67.1179L82.6463 64.9588L83.4348 65.0162L84.2678 65.9801L84.2117 66.7502L81.7036 68.9178ZM79.1804 76.5444L78.6268 77.094L72.9666 71.3925L73.5202 70.8429L75.9747 73.3154L75.9796 71.9917C75.9891 71.8907 76.0537 71.8266 76.1275 71.7533L77.2254 70.6634C77.2992 70.5901 77.3912 70.5537 77.4924 70.5448L78.6231 70.5214C78.7334 70.5218 78.8252 70.5589 78.9077 70.6419L81.9942 73.751L81.4407 74.3005L78.4732 71.3114L77.655 71.3176L76.7786 72.1877L76.7349 74.0812L79.1804 76.5444ZM69.7706 78.3009L69.5745 78.1302L69.4426 76.2227L70.7316 74.7422L71.5202 74.6877L72.5203 75.5584L73.0146 82.0387C73.0222 82.1488 73.075 82.2465 73.1437 82.3062C73.2123 82.366 73.3163 82.4048 73.4264 82.3972C73.5364 82.3896 73.6341 82.3368 73.6939 82.2682L77.0145 78.4541L76.4262 77.9419L73.7287 81.0402L73.2707 75.3498C73.2643 75.2581 73.22 75.1506 73.1416 75.0823L71.9062 74.0067C71.8376 73.947 71.7335 73.9081 71.6235 73.9157L70.5047 73.9931C70.413 73.9995 70.3055 74.0437 70.2372 74.1222L68.7519 75.8282C68.6921 75.8968 68.6532 76.0009 68.6609 76.1109L68.8242 78.3387C68.8305 78.4304 68.8748 78.5379 68.9532 78.6062L69.267 78.8794L69.7706 78.3009ZM70.2776 86.1584L68.624 88.3633L62.3112 83.6287L62.7792 83.0047L64.6928 84.4399L65.9096 82.8175C65.9876 82.7135 66.1124 82.6771 66.167 82.6693L68.3536 82.3755C68.481 82.3573 68.5902 82.4067 68.6422 82.4457L69.9214 83.405C70.0254 83.483 70.0618 83.6078 70.0696 83.6624L70.3686 85.8854C70.3868 86.0128 70.3088 86.1168 70.2776 86.1584ZM65.3064 84.9001L68.4992 87.2947L69.5912 85.8387L69.3364 83.925L68.3068 83.1529L66.4296 83.4025L65.3064 84.9001ZM67.1995 90.0626L60.5622 85.7708L60.1386 86.4258L62.1473 87.7247L61.0461 89.4276C60.9755 89.5368 60.9916 89.6556 61.0032 89.7095L61.477 91.8736C61.504 91.9995 61.5881 92.0848 61.6427 92.1201L62.9855 92.9883C63.0946 93.0589 63.2243 93.0499 63.2782 93.0383L65.4674 92.5497C65.5932 92.5227 65.6747 92.4206 65.703 92.377L67.1995 90.0626ZM66.1428 90.3082L65.1545 91.8365L63.2709 92.2596L62.1902 91.5607L61.7819 89.7022L62.7914 88.1411L66.1428 90.3082ZM60.9091 95.2735L59.013 98.7409L59.9141 99.2336L60.6956 99.0238L62.3359 96.0241L62.9747 96.3733L61.2595 99.51C61.2033 99.6127 61.0964 99.6727 61.0435 99.6882L59.9724 100.021C59.8489 100.057 59.74 100.013 59.683 99.9814L56.9227 98.4721C56.8086 98.4097 56.7725 98.2862 56.757 98.2333L56.4188 97.1445C56.3827 97.021 56.3994 96.882 56.4306 96.825L57.5595 94.7605C57.6219 94.6465 57.763 94.6051 57.816 94.5896L58.8911 94.3033C59.0146 94.2672 59.1184 94.2942 59.1754 94.3254L60.9091 95.2735ZM57.4338 97.8625L58.3121 98.3428L59.8402 95.5483L58.9505 95.0618L58.1804 95.2778L57.195 97.08L57.4338 97.8625ZM52.3008 99.0878L50.0648 104.012L52.9411 105.318L54.3118 102.3L56.0673 101.641L57.2629 102.183L57.9403 103.962L56.5912 106.933L57.3014 107.255L58.7096 104.154C58.7526 104.059 58.7536 103.931 58.716 103.857L57.9341 101.774C57.8953 101.671 57.8167 101.593 57.7339 101.555L56.2424 100.878C56.1477 100.835 56.0197 100.834 55.9455 100.871L53.8801 101.647C53.7768 101.685 53.6983 101.764 53.6607 101.847L52.5481 104.297L51.0921 103.636L53.011 99.4103L52.3008 99.0878ZM49.61 111.234L50.6338 111.614L54.4124 110.922L51.9717 107.895L50.9844 107.529L51.2557 106.798L52.3405 107.2C52.4136 107.227 52.4578 107.257 52.5052 107.317L55.4319 110.94C55.5266 111.058 55.5469 111.19 55.4971 111.324C55.4474 111.458 55.3458 111.546 55.1967 111.573L50.6609 112.401C50.5864 112.414 50.5331 112.409 50.46 112.381L49.3387 111.966L49.61 111.234ZM49.0602 116.512L48.6851 115.848L48.827 115.361L49.4878 114.999L53.5441 116.181L53.7623 115.432L49.5563 114.206C49.4564 114.177 49.3582 114.189 49.2615 114.242L48.3105 114.764C48.2138 114.817 48.1509 114.893 48.1218 114.993L47.889 115.792C47.8599 115.892 47.8719 115.99 47.9249 116.087L48.261 116.699L47.6433 117.007C47.5466 117.06 47.4837 117.136 47.4509 117.249L47.2254 118.022C47.1963 118.122 47.2083 118.221 47.2614 118.317L47.3409 118.462L47.1288 118.4L46.9069 119.162L52.2237 120.711L52.4419 119.962L48.4107 118.788L48.034 118.082L48.165 117.633L48.8383 117.274L52.8821 118.452L53.1039 117.691L49.0602 116.512ZM47.9486 124.014L48.9909 124.238L50.3594 123.375L50.0454 122.855L45.9526 121.977L46.1162 121.215L50.3743 122.128C50.4887 122.153 50.5695 122.21 50.6294 122.303L51.2302 123.283C51.2774 123.372 51.2937 123.482 51.2746 123.571C51.2555 123.66 51.1955 123.754 51.1029 123.814L49.58 124.777L50.6037 126.326C50.6636 126.418 50.6954 126.518 50.6735 126.62C50.6517 126.722 50.5818 126.8 50.4891 126.86L49.5347 127.466C49.4421 127.526 49.3449 127.545 49.2432 127.523L44.9597 126.604L45.1234 125.841L49.2544 126.728L49.7329 126.418L48.8245 125.013L47.7822 124.79L47.9486 124.014ZM49.0615 135.038L49.1694 134.265L45.7317 133.785L44.62 132.252L44.7907 131.029L45.4381 130.528L49.6096 131.111L49.7175 130.338L45.3785 129.732C45.2626 129.716 45.1671 129.742 45.0791 129.809L44.1934 130.512C44.1182 130.58 44.067 130.665 44.0526 130.768L43.8388 132.3C43.8244 132.403 43.8118 132.493 43.8654 132.58L44.663 133.636L41.2125 133.154L41.1047 133.927L49.0615 135.038ZM48.3746 139.727L48.194 142.477L40.3199 141.96L40.3711 141.182L42.7579 141.339L42.8908 139.315C42.8994 139.185 42.984 139.087 43.0255 139.05L44.6965 137.61C44.7933 137.525 44.9117 137.507 44.9766 137.511L46.5721 137.616C46.7019 137.624 46.8005 137.709 46.8369 137.75L48.3017 139.449C48.3865 139.546 48.378 139.675 48.3746 139.727ZM43.5233 141.389L47.5057 141.65L47.625 139.834L46.3662 138.371L45.082 138.286L43.646 139.521L43.5233 141.389ZM44.9292 148.112L46.1468 149.22L47.9538 149.206L47.9601 150.025L40.8363 150.08L40.83 149.261L45.0288 149.229L41.0476 145.45L40.8006 145.452L40.7946 144.685L41.1976 144.682C41.3016 144.681 41.3929 144.72 41.4715 144.797L44.379 147.57L47.2433 144.74C47.3206 144.661 47.4113 144.621 47.5153 144.62L47.9183 144.617L47.9244 145.397L47.6774 145.399L44.9292 148.112ZM136.694 44.3327L136.547 43.2506L135.774 43.3555L135.935 44.5406C135.946 44.6179 135.966 44.6677 136.013 44.7269L138.878 48.3396C138.972 48.4579 139.097 48.5066 139.239 48.4874C139.381 48.4682 139.488 48.388 139.548 48.2487L141.367 43.9612C141.397 43.8916 141.402 43.8383 141.392 43.761L141.236 42.6145L140.464 42.7194L140.605 43.7628L139.083 47.3409L136.694 44.3327ZM145.165 43.2568L144.643 43.8622L144.821 46.7427L145.412 47.2532L147.514 47.1233L148 46.5462L147.822 43.6657L147.28 43.1261L145.165 43.2568ZM143.854 43.7417C143.846 43.6119 143.931 43.5155 143.967 43.4742L144.708 42.6078C144.794 42.5114 144.91 42.5041 144.962 42.5009L147.402 42.3501C147.531 42.3421 147.64 42.4136 147.695 42.4623L148.472 43.2348C148.555 43.3078 148.587 43.41 148.591 43.4749L148.788 46.6538C148.796 46.7836 148.724 46.8922 148.688 46.9335L147.983 47.7456C147.916 47.8343 147.826 47.8464 147.761 47.8504L145.302 48.0024C145.186 48.0096 145.092 47.9634 145.037 47.9276L144.186 47.2248C144.077 47.1404 144.057 47.0244 144.052 46.9466L143.854 43.7417ZM153.78 47.622L151.624 49.7292L152.163 50.2815L156.2 46.337C156.279 46.2599 156.319 46.1693 156.321 46.0653L156.362 42.4776L155.582 42.4686L155.542 45.9003L154.346 47.0695L152.38 45.0576L152.41 42.4318L151.63 42.4228L151.598 45.2046C151.597 45.3086 151.635 45.4 151.712 45.4789L153.78 47.622ZM168.308 45.2978L168.95 44.8208L171.043 45.1539L171.453 45.7985L171 48.6486L170.4 49.1061L168.321 48.7751L167.854 48.148L168.308 45.2978ZM167.734 44.772C167.689 44.8044 167.585 44.8799 167.564 45.0083L167.06 48.1794C167.047 48.2564 167.042 48.374 167.13 48.4802L167.808 49.3516C167.853 49.3983 167.935 49.4639 168.05 49.4823L170.483 49.8696C170.547 49.8798 170.638 49.8877 170.722 49.8155L171.587 49.1765C171.632 49.1441 171.725 49.0537 171.746 48.9253L172.246 45.7799C172.256 45.7157 172.247 45.6089 172.182 45.5196L171.592 44.5964C171.549 44.5369 171.459 44.4435 171.33 44.423L168.917 44.0388C168.865 44.0307 168.75 44.0123 168.645 44.0878L167.734 44.772ZM177.878 46.8201L176.271 47.8052L175.491 51.1338L174.741 50.9713L175.723 46.7284C175.75 46.6145 175.742 46.5326 175.687 46.4262C175.616 46.3295 175.549 46.2737 175.423 46.244L175.195 46.1906L175.376 45.4186L175.996 45.564C176.211 45.6145 176.669 46.1092 176.574 46.5142L176.518 46.7547L177.599 46.0736C177.693 46.0155 177.793 45.9857 177.895 46.0094L178.818 46.2262C178.932 46.2529 179.012 46.3117 179.058 46.4024L179.674 47.3615C179.732 47.4553 179.749 47.5528 179.722 47.6667L179.633 48.0464L178.874 47.8682L178.927 47.6404L178.485 46.9626L177.878 46.8201ZM182.725 47.4761L182.489 48.2331L186.236 49.4026L181.071 52.775L186.333 54.4171L186.565 53.6725L182.83 52.5068L187.987 49.1181L182.725 47.4761ZM190.71 53.0909L189.228 53.8079L188.567 55.49L187.805 55.1908L190.407 48.5592L191.17 48.8584L189.636 52.7672L194.625 50.4798L194.716 50.2498L195.43 50.53L195.282 50.9052C195.244 51.002 195.175 51.0725 195.074 51.1166L191.418 52.7821L192.977 56.4944C193.021 56.5955 193.024 56.6945 192.986 56.7913L192.839 57.1664L192.113 56.8815L192.203 56.6516L190.71 53.0909ZM200.871 55.0482L198.336 53.8399C198.219 53.784 198.103 53.8152 198.051 53.8337L195.966 54.5823C195.845 54.6253 195.771 54.7197 195.743 54.7784L195.055 56.2217C194.999 56.3391 195.025 56.4665 195.043 56.5185L195.81 58.6265C195.853 58.7478 195.964 58.8155 196.011 58.8379L198.499 60.0238L198.824 59.3432L196.477 58.2244L195.814 56.411L196.368 55.2492L198.159 54.605L200.541 55.7406L200.871 55.0482ZM204.438 57.1854L203.897 58.1337L203.964 61.9745L207.348 60.0596L207.87 59.1451L208.548 59.5319L207.974 60.5367C207.935 60.6044 207.898 60.6431 207.832 60.6802L203.781 62.9775C203.649 63.0518 203.515 63.0502 203.391 62.9793C203.266 62.9084 203.197 62.7939 203.194 62.6423L203.117 58.0323C203.115 57.9566 203.129 57.905 203.168 57.8372L203.761 56.7986L204.438 57.1854ZM208.504 64.22C208.504 64.22 208.453 64.483 208.456 64.5011L208.897 66.7096C208.919 66.8178 208.983 66.9083 209.059 66.9591L210.234 67.7502C210.321 67.8082 210.436 67.8231 210.526 67.8055L212.763 67.3681C212.872 67.3469 212.962 67.2824 213.013 67.2069L213.535 66.4304C213.593 66.3441 213.608 66.2288 213.591 66.1385L213.186 63.9698C213.164 63.8616 213.1 63.7712 213.024 63.7204L211.838 62.922C211.752 62.8639 211.636 62.849 211.546 62.8667L210.193 63.1312L211.39 61.3516L213.808 60.8789L213.649 60.1139L211.069 60.6183C210.961 60.6395 210.87 60.704 210.82 60.7795L208.504 64.22ZM209.598 64.0156L211.554 63.6239L212.47 64.2408L212.823 66.092L212.46 66.6312L210.54 67.0159L209.624 66.399L209.264 64.5118L209.598 64.0156ZM218.212 70.7875L215.095 68.3591L214.463 69.1693L214.545 69.9743L217.242 72.0752L216.795 72.6496L213.975 70.4528C213.882 70.3809 213.84 70.2657 213.833 70.211L213.677 69.1003C213.661 68.9726 213.723 68.8723 213.762 68.8211L215.696 66.3391C215.776 66.2365 215.903 66.2206 215.958 66.2138L217.087 66.055C217.215 66.0391 217.349 66.078 217.4 66.1179L219.257 67.5638C219.359 67.6437 219.377 67.7896 219.384 67.8444L219.494 68.9516C219.51 69.0793 219.467 69.1773 219.427 69.2286L218.212 70.7875ZM216.215 66.9414L215.6 67.7312L218.113 69.6883L218.736 68.8883L218.646 68.0936L217.026 66.8314L216.215 66.9414ZM224.21 69.8777L227.086 72.4742L226.903 72.6768L223.725 72.8201C223.615 72.8257 223.525 72.8671 223.455 72.9443C223.386 73.0215 223.354 73.1152 223.359 73.2253C223.365 73.3355 223.416 73.4342 223.483 73.4952L223.956 73.9221L224.045 75.8413L223.679 76.2465L221.861 76.3391L220.327 74.9537L220.274 73.9071L219.503 73.9464L219.564 75.1582C219.569 75.25 219.611 75.3583 219.688 75.428L221.435 77.0051C221.502 77.0661 221.606 77.1068 221.716 77.1012L223.864 76.9918C223.956 76.9871 224.064 76.9448 224.134 76.8676L224.718 76.2212C224.779 76.1537 224.819 76.0504 224.814 75.9402L224.7 73.7001C224.698 73.6634 224.685 73.5996 224.655 73.5551L227.097 73.4308C227.189 73.4261 227.298 73.3838 227.367 73.3066L228.178 72.4093L224.733 69.2988L224.21 69.8777ZM229.54 78.6512L227.656 78.601L225.186 80.9653L224.646 80.4202L227.783 77.3992C227.868 77.3183 227.906 77.2456 227.918 77.1264C227.911 77.0067 227.886 76.9234 227.796 76.8295L227.634 76.6604L228.207 76.112L228.647 76.5722C228.8 76.7318 228.914 77.3963 228.614 77.684L228.435 77.8548L229.713 77.8735C229.823 77.8759 229.924 77.9056 229.996 77.9808L230.652 78.6663C230.733 78.7508 230.768 78.8435 230.756 78.9444L230.75 80.0844C230.747 80.1947 230.709 80.2858 230.624 80.3667L230.342 80.6364L229.803 80.0729L229.972 79.9111L229.971 79.102L229.54 78.6512ZM231.507 86.9153L234.424 84.4858L235.447 85.7144L236.057 85.2069L235.033 83.9783L236.861 82.4557L236.362 81.8564L234.534 83.3789L233.511 82.1503L232.901 82.6579L233.925 83.8865L230.878 86.4241C230.798 86.4907 230.753 86.5789 230.743 86.6887L230.691 87.2563C230.681 87.3662 230.71 87.4611 230.776 87.541L231.284 88.1503L231.883 87.6511L231.475 87.1616L231.507 86.9153ZM236.321 94.8688L236.772 92.083L233.99 91.6137L233.789 91.7576L233.335 91.1234L233.673 90.8812C233.757 90.8206 233.847 90.7888 233.955 90.8068L236.891 91.3106L237.369 88.3616C237.387 88.2528 237.456 88.1711 237.541 88.1105L237.858 87.8834L238.312 88.5175L238.101 88.6689L237.671 91.4395L240.432 91.924L240.644 91.7726L241.098 92.4067L240.781 92.6338C240.696 92.6943 240.589 92.7232 240.48 92.7052L237.545 92.2014L237.067 95.1504C237.049 95.2592 236.997 95.3439 236.913 95.4045L236.575 95.6467L236.12 95.0126L236.321 94.8688ZM241.334 100.233L239.537 101.331L238.858 101.167L237.929 99.6467L238.141 98.7711L237.39 98.5897L237.14 99.6262C237.114 99.7334 237.135 99.8425 237.182 99.9201L238.273 101.706C238.328 101.795 238.433 101.868 238.516 101.878L239.516 102.12C239.623 102.146 239.733 102.125 239.81 102.078L243.926 99.5638C244.015 99.5096 244.088 99.4042 244.098 99.3216L244.373 98.2248C244.399 98.1176 244.367 98.0152 244.319 97.9376L243.296 96.2623C243.242 96.1736 243.148 96.0941 243.065 96.0836L240.892 95.5678C240.784 95.5419 240.675 95.5628 240.598 95.6103L239.854 96.0643C239.765 96.1185 239.693 96.2238 239.682 96.3064L239.173 98.4151C239.147 98.5223 239.168 98.6314 239.215 98.7091L239.859 99.763C239.913 99.8518 240.018 99.9246 240.101 99.935L241.334 100.233ZM242.266 99.6638L240.443 99.2234L239.962 98.4357L240.394 96.6486L240.871 96.3572L242.712 96.802L243.572 98.211L243.387 98.9794L242.266 99.6638ZM245.73 105.987L245.078 104.729L244.004 108.053C243.971 108.158 243.908 108.235 243.816 108.283L243.446 108.474L243.093 107.793L243.255 107.71L244.563 103.737L244.127 102.894L241.311 104.354L240.958 103.673L247.271 100.4L249.215 104.151C249.263 104.244 249.27 104.343 249.237 104.448L248.909 105.511C248.876 105.616 248.813 105.692 248.721 105.74L247.301 106.476C247.209 106.524 247.11 106.531 247.005 106.498L245.96 106.176C245.854 106.142 245.778 106.08 245.73 105.987ZM246.931 101.44L244.819 102.535L246.345 105.478L247.081 105.712L248.212 105.125L248.451 104.372L246.931 101.44ZM251.073 112.756L250.012 110.241C249.992 110.193 249.929 110.078 249.809 110.03L247.734 109.178C247.683 109.158 247.557 109.127 247.437 109.178L246.015 109.786C245.955 109.811 245.858 109.881 245.81 110.001L244.977 112.053C244.956 112.105 244.92 112.219 244.971 112.339L245.758 114.179L243.589 115.092L244.212 116.551L244.953 116.234L244.642 115.505L251.073 112.756ZM250.08 112.318L246.458 113.866L245.743 112.192L246.46 110.43L247.595 109.945L249.38 110.68L250.08 112.318ZM252.174 116.216L251.142 116.573L248.662 119.507L252.47 120.295L253.465 119.952L253.72 120.689L252.626 121.067C252.552 121.092 252.499 121.097 252.425 121.081L247.864 120.14C247.715 120.109 247.616 120.02 247.569 119.884C247.522 119.749 247.545 119.617 247.643 119.501L250.622 115.982C250.671 115.924 250.716 115.895 250.789 115.87L251.92 115.479L252.174 116.216ZM249.581 128.92L255.346 127.382L255.141 126.615L249.527 128.114L248.846 127.731L248.514 126.487L249.006 125.656L248.337 125.27L247.772 126.228C247.717 126.323 247.703 126.421 247.73 126.522L248.145 128.079C248.175 128.192 248.221 128.261 248.316 128.316L249.284 128.865C249.379 128.92 249.48 128.947 249.581 128.92ZM257.44 126.002L256.674 126.206L256.882 126.985L257.648 126.781L257.44 126.002ZM256.736 131.023L253.62 131.617L254.093 134.094L255.687 135.167L256.185 135.072L257.211 133.513L256.736 131.023ZM253.333 134.411L252.828 131.768L250.492 132.214L250.348 131.46L257.358 130.123L258.006 133.52C258.026 133.622 258.017 133.716 257.955 133.808L256.728 135.63C256.666 135.721 256.597 135.774 256.495 135.793L255.677 135.949C255.575 135.969 255.481 135.96 255.39 135.898L253.524 134.653C253.433 134.591 253.352 134.514 253.333 134.411ZM252.061 140.944L249.698 139.072L249.218 139.678L253.643 143.182C253.729 143.25 253.824 143.278 253.928 143.266L257.492 142.852L257.402 142.078L253.993 142.474L252.681 141.435L254.427 139.23L257.036 138.927L256.946 138.152L254.182 138.473C254.079 138.485 253.993 138.534 253.925 138.621L252.061 140.944ZM257.59 148.024L257.709 150.83L256.943 150.862L256.831 148.226L255.423 146.945L254.137 147L252.845 148.434L252.955 151.032L252.202 151.064L252.085 148.31C252.083 148.258 252.09 148.128 252.177 148.033L253.681 146.369C253.718 146.328 253.819 146.246 253.949 146.24L255.547 146.172C255.611 146.17 255.729 146.191 255.824 146.278L257.462 147.77C257.503 147.807 257.584 147.894 257.59 148.024Z" fill="white"/>
</svg>
