<svg width="300" height="300" viewBox="0 0 300 300" fill="none" xmlns="http://www.w3.org/2000/svg">
<circle cx="150" cy="150" r="150" fill="black"/>
<path fill-rule="evenodd" clip-rule="evenodd" d="M150 300C232.843 300 300 232.843 300 150C300 67.1573 232.843 0 150 0C67.1573 0 0 67.1573 0 150C0 232.843 67.1573 300 150 300ZM150 295C230.081 295 295 230.081 295 150C295 69.9187 230.081 5 150 5C69.9187 5 5 69.9187 5 150C5 230.081 69.9187 295 150 295ZM149.647 8.0805L150.486 8.83858L149.964 9.40726L149.247 8.7741L147.987 8.82761L145.948 11.0482L146.003 12.36L148.237 14.399L149.471 14.3466L150.116 13.6036L150.71 14.1248L149.953 14.9897C149.904 15.0439 149.803 15.1132 149.673 15.1187L148.114 15.185C148.049 15.1877 147.931 15.1537 147.836 15.0667L145.36 12.8297C145.319 12.7924 145.237 12.6918 145.231 12.5619L145.162 10.9254C145.159 10.8605 145.167 10.743 145.254 10.6482L147.53 8.18341C147.568 8.14279 147.669 8.07344 147.799 8.06792L149.37 8.00117C149.435 7.99841 149.552 7.99344 149.647 8.0805ZM138.144 15.756L138.908 15.6822L138.335 9.75583L142.576 13.3684L142.764 15.3093L143.527 15.2355L142.843 8.15751L142.079 8.23134L142.461 12.1779L138.223 8.60421L137.46 8.67803L138.144 15.756ZM134.267 13.5382L130.452 14.1306L130.841 16.6356L130.083 16.7532L129.409 12.4112C129.391 12.2956 129.452 12.1809 129.485 12.1364L131.398 9.45823C131.461 9.35634 131.559 9.31469 131.637 9.30272C131.765 9.28278 131.876 9.31821 131.95 9.37247L134.612 11.3535C134.716 11.4294 134.747 11.5431 134.757 11.6073L135.427 15.9236L134.656 16.0432L134.267 13.5382ZM130.206 12.4586L130.353 13.4092L134.156 12.8189L134.01 11.8811L131.797 10.2513L130.206 12.4586ZM121.85 10.9928L123.28 17.972L128.572 16.8575L128.411 16.0942L123.87 17.0506L122.562 10.8428L121.85 10.9928ZM119.46 16.1196L115.733 17.1295L116.396 19.5762L115.656 19.7769L114.507 15.5358C114.476 15.4229 114.524 15.3021 114.552 15.2543L116.157 12.3813C116.209 12.2731 116.302 12.2208 116.377 12.2004C116.503 12.1664 116.617 12.1894 116.697 12.2351L119.561 13.9101C119.673 13.9741 119.716 14.0837 119.733 14.1464L120.876 18.3623L120.123 18.5664L119.46 16.1196ZM115.304 15.4949L115.555 16.4234L119.269 15.4169L119.021 14.501L116.642 13.1255L115.304 15.4949ZM108.088 15.6971L107.747 14.6597L107.006 14.9033L107.376 16.0271C107.381 16.0425 107.383 16.0589 107.385 16.0753L107.385 16.0755C107.387 16.0919 107.389 16.1084 107.394 16.1238C107.397 16.1328 107.403 16.1408 107.411 16.1509L107.416 16.1569L107.42 16.163L111.348 20.7425C111.454 20.8581 111.606 20.9039 111.767 20.8511C111.927 20.7984 112.022 20.6713 112.04 20.5152L112.537 14.4946C112.533 14.4412 112.53 14.3877 112.513 14.3383L112.144 13.2145L111.403 13.4581L111.748 14.5078L111.332 19.5297L108.088 15.6971ZM101.824 21.5804L105.419 20.17L106.345 22.5298L107.071 22.2448L105.475 18.1787C105.451 18.1182 105.396 18.014 105.278 17.9626L102.248 16.6102C102.164 16.5734 102.048 16.563 101.927 16.6105C101.854 16.639 101.767 16.7012 101.728 16.8144L100.445 19.8453C100.423 19.8959 100.389 20.0212 100.431 20.1301L102.036 24.2204L102.75 23.9402L101.824 21.5804ZM101.571 20.898L101.219 20.0025L102.29 17.5013L104.806 18.6089L105.153 19.4923L101.571 20.898ZM153.376 8.10527L153.266 15.2154L154.033 15.2273L154.083 11.9777L157.957 12.0375L157.907 15.2871L158.674 15.2989L158.783 8.18877L158.016 8.17692L157.968 11.3096L154.095 11.2497L154.143 8.11711L153.376 8.10527ZM160.564 15.5658L161.06 8.44602L166.455 8.82125L166.399 9.61234L161.77 9.29033L161.606 11.6377L164.693 11.8523L164.638 12.6434L161.551 12.4287L161.384 14.8409L166.013 15.1629L165.959 15.941L160.564 15.5658ZM176.829 15.1662L180.627 15.8606L180.171 18.3543L180.939 18.4945L181.724 14.1978C181.736 14.1338 181.744 14.0164 181.671 13.9105L179.807 11.1646C179.755 11.089 179.662 11.0191 179.534 10.9957C179.458 10.9817 179.351 10.9886 179.257 11.0641L176.571 12.9649C176.525 12.9962 176.43 13.0845 176.409 13.1996L175.619 17.522L176.373 17.6599L176.829 15.1662ZM176.973 14.4524L177.146 13.5061L179.374 11.9444L180.929 14.2109L180.758 15.1445L176.973 14.4524ZM184.737 12.2129L184.483 13.2751L185.237 18.2395L188.223 14.1809L188.48 13.106L189.238 13.2871L188.964 14.4378C188.952 14.4883 188.927 14.5359 188.902 14.5835L185.322 19.4494C185.226 19.5734 185.078 19.6317 184.914 19.5925C184.749 19.5533 184.644 19.4346 184.614 19.2804L183.67 13.3216L183.669 13.3067L183.669 13.3064L183.669 13.3062C183.667 13.2935 183.666 13.2835 183.668 13.2744C183.672 13.2585 183.679 13.2435 183.686 13.2284C183.693 13.2134 183.7 13.1983 183.704 13.1825L183.978 12.0318L184.737 12.2129ZM191.3 18.8011L194.999 19.9094L194.271 22.3377L195.018 22.5616L196.272 18.3774C196.291 18.3152 196.312 18.1994 196.251 18.0861L194.701 15.1517C194.657 15.0707 194.573 14.9911 194.448 14.9537C194.373 14.9314 194.266 14.9264 194.165 14.9912L191.286 16.5846C191.237 16.6108 191.133 16.688 191.099 16.8001L189.838 21.0092L190.572 21.2294L191.3 18.8011ZM191.522 18.1074L191.798 17.1859L194.184 15.879L195.48 18.303L195.208 19.212L191.522 18.1074ZM201.815 24.0781L200.663 21.5314L198.214 22.7591L197.872 23.7002L197.139 23.4345L197.533 22.3467C197.569 22.2489 197.637 22.1766 197.736 22.1299L200.336 20.8321L199.185 18.1333C199.138 18.0334 199.132 17.9345 199.168 17.8368L199.562 16.749L200.295 17.0148L199.954 17.9559L201.052 20.497L203.555 19.2748L203.897 18.3337L204.63 18.5995L204.236 19.6873C204.2 19.785 204.133 19.8573 204.033 19.904L201.38 21.1964L202.584 23.9007C202.631 24.0006 202.637 24.0994 202.601 24.1972L202.207 25.285L201.474 25.0192L201.815 24.0781ZM285.966 171.589L285.391 175.407L282.884 175.029L282.768 175.8L287.087 176.451C287.151 176.461 287.269 176.465 287.372 176.389L290.059 174.441C290.133 174.386 290.2 174.291 290.219 174.162C290.231 174.085 290.22 173.979 290.142 173.888L288.158 171.262C288.126 171.218 288.034 171.125 287.919 171.107L283.574 170.452L283.459 171.211L285.966 171.589ZM286.684 171.71L287.635 171.854L289.266 174.032L287.049 175.657L286.11 175.515L286.684 171.71ZM287.929 179.955L288.998 180.179L289.158 179.415L288 179.173C287.988 179.171 287.978 179.167 287.967 179.162L287.953 179.157L287.945 179.153L287.933 179.148L287.925 179.145C287.919 179.143 287.913 179.142 287.907 179.14L287.902 179.14C287.9 179.139 287.897 179.139 287.895 179.139C287.889 179.14 287.882 179.141 287.875 179.142L287.86 179.144L281.93 180.255C281.777 180.29 281.661 180.398 281.626 180.564C281.592 180.729 281.654 180.875 281.781 180.968L286.746 184.409C286.755 184.414 286.765 184.418 286.774 184.423C286.78 184.425 286.785 184.428 286.791 184.431C286.801 184.435 286.812 184.44 286.822 184.444C286.846 184.454 286.869 184.462 286.893 184.467L288.051 184.709L288.211 183.945L287.129 183.719L282.988 180.848L287.929 179.955ZM281.878 189.592L282.866 185.86L280.416 185.21L280.612 184.469L284.86 185.594C284.973 185.624 285.053 185.726 285.081 185.774L286.766 188.601C286.834 188.699 286.833 188.807 286.813 188.882C286.78 189.008 286.703 189.095 286.623 189.141L283.74 190.785C283.629 190.849 283.513 190.832 283.45 190.815L279.227 189.697L279.427 188.943L281.878 189.592ZM284.497 186.305L283.567 186.059L282.581 189.778L283.499 190.021L285.88 188.648L284.497 186.305ZM285.122 194.225L278.363 191.974L276.683 197.114L277.424 197.356L278.866 192.945L284.896 194.917L285.122 194.225ZM276.709 203.706L278.104 200.106L275.74 199.19L276.017 198.475L280.115 200.062C280.224 200.105 280.292 200.215 280.315 200.265L281.678 203.261C281.734 203.367 281.721 203.473 281.693 203.546C281.646 203.667 281.56 203.745 281.476 203.782L278.429 205.097C278.311 205.149 278.197 205.119 278.137 205.096L274.064 203.518L274.345 202.791L276.709 203.706ZM279.675 200.729L278.778 200.381L277.388 203.969L278.273 204.312L280.791 203.21L279.675 200.729ZM272.85 205.955L272.532 206.653L277.951 209.12L272.702 210.987L270.927 210.179L270.61 210.877L277.081 213.823L277.399 213.125L273.791 211.482L279.004 209.599L279.322 208.901L272.85 205.955ZM273.746 219.754L272.67 220.102L272.439 219.365L273.345 219.061L273.929 217.943L273.026 215.067L271.862 214.459L268.979 215.374L268.408 216.468L268.729 217.399L267.98 217.653L267.609 216.565C267.587 216.495 267.578 216.373 267.638 216.257L268.36 214.874C268.39 214.817 268.479 214.731 268.602 214.693L271.777 213.667C271.829 213.65 271.958 213.629 272.073 213.689L273.525 214.447C273.583 214.477 273.68 214.543 273.719 214.666L274.715 217.87C274.732 217.922 274.741 218.045 274.681 218.16L273.953 219.554C273.923 219.612 273.869 219.716 273.746 219.754ZM271.86 222.971L265.757 219.321L265.364 219.979L268.153 221.648L266.164 224.972L263.375 223.304L262.981 223.962L269.084 227.612L269.478 226.954L266.789 225.346L268.778 222.021L271.466 223.63L271.86 222.971ZM261.805 225.466L267.723 229.455L264.701 233.94L264.043 233.496L266.637 229.648L264.686 228.333L262.957 230.899L262.299 230.455L264.028 227.89L262.023 226.538L259.429 230.387L258.782 229.951L261.805 225.466ZM254.019 239.752L251.518 242.694L249.587 241.052L249.081 241.647L252.41 244.475C252.459 244.517 252.557 244.583 252.685 244.573L255.995 244.332C256.087 244.324 256.194 244.279 256.278 244.18C256.328 244.12 256.376 244.024 256.357 243.906L256.054 240.629C256.05 240.574 256.021 240.447 255.932 240.371L252.584 237.526L252.087 238.11L254.019 239.752ZM254.565 240.233L255.298 240.856L255.536 243.567L252.796 243.78L252.073 243.165L254.565 240.233ZM252.622 248.077L251.829 247.326L247.153 245.496L249.175 250.112L249.977 250.872L249.441 251.438L248.582 250.625C248.566 250.61 248.552 250.594 248.539 250.576C248.533 250.568 248.527 250.559 248.521 250.551L248.513 250.539L248.506 250.528L248.487 250.499L246.063 244.966C246.004 244.82 246.027 244.663 246.143 244.54C246.259 244.418 246.415 244.386 246.563 244.437L252.195 246.599C252.214 246.608 252.228 246.612 252.237 246.621C252.242 246.625 252.246 246.63 252.25 246.634C252.257 246.642 252.262 246.651 252.268 246.659C252.274 246.667 252.28 246.675 252.286 246.682C252.29 246.687 252.294 246.693 252.299 246.697L253.159 247.51L252.622 248.077ZM243.635 250.467L240.826 253.116L239.087 251.271L238.52 251.806L241.516 254.984C241.561 255.032 241.65 255.108 241.779 255.112L245.095 255.237C245.187 255.239 245.299 255.206 245.393 255.117C245.45 255.063 245.508 254.973 245.502 254.853L245.562 251.562C245.563 251.507 245.549 251.378 245.469 251.293L242.454 248.096L241.896 248.622L243.635 250.467ZM244.125 251.005L244.785 251.705L244.724 254.426L241.977 254.336L241.326 253.645L244.125 251.005ZM233.808 256.934L236.589 257.21L236.751 254.475L236.106 253.709L236.703 253.207L237.448 254.092C237.515 254.172 237.544 254.266 237.534 254.376L237.358 257.277L240.271 257.629C240.381 257.638 240.469 257.683 240.536 257.763L241.281 258.648L240.685 259.15L240.04 258.384L237.29 258.064L237.097 260.843L237.742 261.609L237.145 262.111L236.4 261.226C236.333 261.147 236.304 261.052 236.314 260.942L236.521 257.998L233.577 257.689C233.467 257.68 233.379 257.635 233.312 257.556L232.567 256.67L233.163 256.168L233.808 256.934ZM14.5223 170.483L16.1522 168.213L17.1378 168.038L17.0013 167.27L15.8621 167.472C15.7597 167.491 15.677 167.545 15.6138 167.635L13.8741 170.031L11.4284 168.379C11.338 168.316 11.2415 168.294 11.1391 168.312L10 168.514L10.1365 169.282L11.122 169.107L13.4321 170.664L11.7803 172.885L10.7948 173.06L10.9313 173.828L12.0704 173.626C12.1728 173.608 12.2556 173.553 12.3187 173.463L14.0803 171.116L16.5042 172.719C16.5946 172.782 16.691 172.805 16.7934 172.786L17.9326 172.584L17.7961 171.816L16.8105 171.991L14.5223 170.483ZM15.95 176.2L16.8394 179.957L19.3062 179.373L19.4829 180.12L15.2071 181.132C15.0932 181.159 14.9741 181.107 14.9271 181.078L12.1074 179.381C12.0008 179.326 11.9516 179.231 11.9336 179.155C11.9037 179.028 11.9303 178.915 11.9786 178.837L13.7449 176.028C13.8125 175.918 13.9234 175.878 13.9866 175.863L18.2371 174.857L18.4168 175.616L15.95 176.2ZM15.1919 180.334L16.128 180.112L15.2416 176.368L14.3181 176.587L12.8668 178.921L15.1919 180.334ZM15.4621 188.624L14.4155 188.935L14.6381 189.683L15.7719 189.345C15.7875 189.341 15.804 189.339 15.8205 189.338C15.837 189.336 15.8535 189.335 15.8691 189.33C15.8782 189.327 15.8863 189.321 15.8967 189.314L15.9043 189.308L15.909 189.305L20.5976 185.508C20.7161 185.405 20.7662 185.254 20.718 185.092C20.6698 184.93 20.5454 184.832 20.3898 184.81L14.3858 184.143C14.3322 184.145 14.2787 184.147 14.2288 184.162L13.095 184.5L13.3176 185.247L14.3766 184.932L19.3848 185.489L15.4621 188.624ZM19.6294 190.671L20.9271 194.307L23.3146 193.455L23.5724 194.177L19.434 195.654C19.3238 195.694 19.1996 195.655 19.1498 195.631L16.1603 194.255C16.0484 194.212 15.989 194.123 15.9627 194.05C15.919 193.927 15.9331 193.812 15.9724 193.729L17.4187 190.742C17.4738 190.626 17.5796 190.574 17.6409 190.552L21.7548 189.084L22.0169 189.819L19.6294 190.671ZM19.331 194.863L20.237 194.54L18.9437 190.915L18.0499 191.234L16.8644 193.714L19.331 194.863ZM22.992 211.324L29.4055 208.193L27.033 203.333L26.3321 203.675L28.3681 207.846L26.1952 208.907L24.8379 206.126L24.1252 206.474L25.4826 209.255L23.3681 210.287L21.3321 206.116L20.6195 206.464L22.992 211.324ZM32.7511 214.689L26.5387 218.149L26.1655 217.478L28.9026 215.954L27.0176 212.57L24.2805 214.094L23.9073 213.424L30.1198 209.964L30.493 210.634L27.6536 212.215L29.5386 215.6L32.3779 214.018L32.7511 214.689ZM28.6188 220.285L28.3818 221.39C28.3538 221.516 28.4165 221.615 28.4514 221.67L29.295 222.997C29.3647 223.107 29.4753 223.16 29.5292 223.172L32.802 223.911C32.9276 223.939 33.0333 223.887 33.0882 223.852L34.4707 222.974C34.5804 222.904 34.6264 222.783 34.6384 222.729L35.3375 219.466C35.3656 219.34 35.3357 219.221 35.3009 219.166L34.4642 217.849C34.3945 217.739 34.2839 217.686 34.2121 217.67L33.0846 217.447L32.9305 218.223L33.8965 218.41L34.5589 219.452L33.9098 222.406L32.8016 223.11L29.8587 222.454L29.1824 221.39L29.3725 220.453L28.6188 220.285ZM40.3346 226.89L40.7802 227.514L34.9927 231.646L34.5471 231.022L35.5232 225.565L32.2961 227.869L31.8505 227.244L37.638 223.113L38.0836 223.737L36.4966 224.87L35.4887 230.349L40.3346 226.89ZM43.2187 234.989L40.798 231.981L42.773 230.391L42.284 229.784L38.881 232.522C38.8304 232.563 38.7474 232.646 38.7335 232.774L38.3491 236.07C38.3392 236.162 38.3639 236.275 38.4454 236.377C38.4943 236.438 38.5798 236.502 38.6996 236.506L41.9753 236.823C42.0302 236.829 42.1601 236.825 42.2512 236.752L45.6745 233.997L45.1936 233.399L43.2187 234.989ZM42.6434 235.435L41.8939 236.038L39.1868 235.764L39.4916 233.032L40.2309 232.437L42.6434 235.435ZM50.1316 239.279L44.8025 244.007L44.3164 243.465L49.0388 239.229L45.9398 235.774L46.5205 235.254L50.1316 239.279ZM53.1753 246.236L50.4374 243.514L52.2248 241.716L51.6717 241.166L48.5919 244.264C48.546 244.31 48.4727 244.402 48.4731 244.53L48.455 247.849C48.4552 247.941 48.4923 248.051 48.5845 248.143C48.6398 248.198 48.7319 248.253 48.8513 248.243L52.1421 248.197C52.1973 248.197 52.3259 248.178 52.4084 248.095L55.5066 244.979L54.9627 244.439L53.1753 246.236ZM52.6528 246.743L51.9745 247.425L49.2536 247.451L49.255 244.703L49.9241 244.03L52.6528 246.743ZM55.0293 254.387L55.7572 253.573L57.4543 248.847L52.8974 250.998L52.1609 251.822L51.5794 251.302L52.368 250.42C52.4026 250.381 52.447 250.351 52.4913 250.321L57.9542 247.742C58.098 247.679 58.2555 247.698 58.3815 247.81C58.5075 247.923 58.5437 248.077 58.4969 248.227L56.4946 253.918C56.4924 253.923 56.4906 253.928 56.4888 253.933C56.4841 253.944 56.4803 253.954 56.474 253.961C56.4631 253.973 56.4499 253.983 56.4366 253.993C56.4302 253.998 56.4238 254.003 56.4177 254.008L56.4137 254.011L56.4072 254.017L56.4031 254.021L56.3993 254.025L55.6107 254.907L55.0293 254.387ZM60.9657 253.649L63.9843 256.056L65.5649 254.074L66.1646 254.552L63.4248 257.988C63.3519 258.079 63.2261 258.112 63.1712 258.118L59.9052 258.523C59.7874 258.545 59.6899 258.501 59.6289 258.452C59.5273 258.371 59.4784 258.266 59.4681 258.174L59.1241 254.874C59.1097 254.746 59.1725 254.646 59.213 254.595L61.9365 251.18L62.5464 251.667L60.9657 253.649ZM62.9204 257.369L63.5202 256.617L60.5118 254.218L59.9201 254.96L60.2186 257.692L62.9204 257.369ZM110.95 278.6L108.704 285.347L107.976 285.105L108.965 282.133L105.29 280.909L104.3 283.882L103.572 283.639L105.818 276.892L106.546 277.135L105.52 280.218L109.195 281.442L110.222 278.358L110.95 278.6ZM194.067 279.984L194.294 280.675L191.355 281.641L191.128 280.95L191.856 280.71L191.069 278.314L193.629 277.486C193.691 277.466 193.806 277.442 193.921 277.5L195.886 278.482C195.935 278.507 196.042 278.582 196.083 278.705L197.089 281.768C197.11 281.83 197.142 281.97 197.084 282.085L196.085 284.041C196.064 284.103 195.982 284.185 195.858 284.225L194.376 284.713C194.314 284.733 194.187 284.761 194.072 284.703L192.837 284.069L193.198 283.376L194.285 283.935L195.458 283.55L196.3 281.863L195.394 279.109L193.725 278.276L192.045 278.828L192.585 280.471L194.067 279.984ZM188.41 279.134L190.25 286.03L185.025 287.424L184.821 286.658L189.305 285.461L188.698 283.188L185.709 283.986L185.504 283.22L188.493 282.422L187.87 280.086L183.386 281.282L183.185 280.529L188.41 279.134ZM181.21 281.026L180.46 281.184L181.687 287.01L177.071 283.89L176.669 281.982L175.918 282.14L177.384 289.098L178.134 288.94L177.317 285.06L181.925 288.142L182.676 287.984L181.21 281.026ZM173.944 282.497L175.012 289.554L169.664 290.363L169.546 289.579L174.134 288.884L173.782 286.558L170.723 287.021L170.605 286.237L173.664 285.774L173.302 283.383L168.713 284.077L168.597 283.306L173.944 282.497ZM162.559 289.823L162.534 289.564L161.732 289.641L161.772 290.055C161.782 290.159 161.829 290.246 161.915 290.316L162.738 290.994C162.823 291.064 162.916 291.081 163.019 291.071L166.047 290.778C166.151 290.768 166.239 290.734 166.309 290.649L167.022 289.783C167.092 289.698 167.122 289.603 167.112 289.5L167.037 288.724C167.025 288.594 166.962 288.483 166.838 288.416L162.166 285.76L162.127 285.358L162.59 284.739L165.32 284.475L165.929 284.965L165.953 285.211L166.729 285.135L166.691 284.734C166.68 284.631 166.633 284.544 166.548 284.474L165.682 283.761C165.597 283.691 165.503 283.661 165.399 283.671L162.345 283.966C162.229 283.977 162.145 284.051 162.074 284.136L161.414 285.009C161.357 285.093 161.326 285.175 161.336 285.278L161.41 286.042C161.422 286.171 161.485 286.283 161.609 286.349L166.281 289.006L166.321 289.42L165.818 290.03L163.101 290.293L162.559 289.823ZM157.889 290.641L157.922 291.42L155.61 291.518L155.577 290.739L156.343 290.706L156.107 285.147L155.341 285.18L155.307 284.388L157.619 284.289L157.653 285.082L156.886 285.114L157.122 290.673L157.889 290.641ZM146.505 290.268L146.509 290.008L145.703 289.996L145.697 290.412C145.695 290.516 145.733 290.607 145.81 290.686L146.552 291.452C146.629 291.531 146.719 291.559 146.823 291.56L149.865 291.607C149.969 291.609 150.06 291.584 150.14 291.507L150.945 290.727C151.024 290.65 151.064 290.559 151.066 290.455L151.078 289.676C151.08 289.546 151.03 289.428 150.914 289.348L146.568 286.187L146.575 285.784L147.103 285.22L149.846 285.262L150.397 285.817L150.393 286.064L151.173 286.076L151.179 285.673C151.18 285.569 151.143 285.477 151.066 285.398L150.285 284.593C150.209 284.514 150.118 284.473 150.014 284.472L146.947 284.424C146.83 284.422 146.738 284.486 146.658 284.563L145.905 285.357C145.839 285.434 145.799 285.512 145.797 285.616L145.785 286.382C145.783 286.512 145.833 286.63 145.949 286.71L150.295 289.871L150.289 290.287L149.721 290.838L146.991 290.796L146.505 290.268ZM140.005 284.887L139.242 284.811L138.684 290.36L139.447 290.436L139.37 291.199L135.93 290.853C135.8 290.84 135.703 290.765 135.655 290.721L134.266 288.948C134.196 288.863 134.179 288.77 134.188 288.679C134.201 288.55 134.264 288.452 134.335 288.393L135.767 287.27L134.59 285.858C134.52 285.773 134.492 285.665 134.499 285.588C134.511 285.471 134.573 285.373 134.644 285.315L136.385 283.857C136.485 283.775 136.604 283.761 136.668 283.768L140.083 284.111L140.005 284.887ZM135.433 285.656L136.506 286.939L138.227 287.112L138.466 284.732L136.759 284.561L135.433 285.656ZM138.147 287.901L136.44 287.73L135.12 288.773L136.175 290.107L137.908 290.281L138.147 287.901ZM131.537 285.718L127.721 285.126L128.11 282.621L127.339 282.501L126.669 286.818C126.659 286.882 126.654 287 126.73 287.103L128.667 289.798C128.721 289.873 128.816 289.94 128.944 289.96C129.021 289.972 129.128 289.962 129.219 289.884L131.854 287.912C131.898 287.879 131.991 287.789 132.009 287.673L132.683 283.331L131.925 283.213L131.537 285.718ZM131.412 286.436L131.264 287.386L129.079 289.007L127.464 286.783L127.61 285.845L131.412 286.436ZM124.034 288.351L123.873 289.114L118.582 287.999L118.742 287.236L121.007 287.713L122.314 281.505L123.077 281.666L121.77 287.874L124.034 288.351ZM111.249 285.175L111.82 286.151C111.884 286.263 111.997 286.293 112.06 286.31L113.578 286.722C113.703 286.756 113.821 286.72 113.869 286.693L116.784 285.031C116.895 284.967 116.938 284.858 116.955 284.795L117.384 283.214C117.418 283.088 117.37 282.968 117.342 282.92L115.658 280.039C115.594 279.927 115.491 279.859 115.429 279.842L113.923 279.434C113.798 279.4 113.68 279.436 113.616 279.472L112.633 280.068L113.043 280.744L113.882 280.231L115.074 280.554L116.587 283.173L116.243 284.44L113.628 285.94L112.411 285.611L111.919 284.79L111.249 285.175ZM242.022 46.6181L241.537 47.1607L242.699 48.2006L241.547 49.4895L240.229 48.3109L240.116 46.4483L242.048 44.2873L243.929 44.173L244.85 44.9963L244.909 46.2175L245.689 46.1831L245.621 44.7967C245.614 44.6682 245.526 44.5718 245.477 44.5285L244.314 43.4886C244.218 43.402 244.105 43.3714 244.042 43.3842L241.848 43.4975C241.719 43.5047 241.614 43.6026 241.571 43.6511L239.422 46.0544C239.335 46.1513 239.324 46.2808 239.327 46.3358L239.459 48.5289C239.466 48.6574 239.544 48.7451 239.593 48.7884L241.59 50.5919L243.271 48.7119L243.843 49.2231L244.328 48.6805L242.022 46.6181ZM248.681 47.443L243.63 52.4848L247.45 56.3124L248.002 55.7614L244.723 52.4766L246.435 50.7685L248.621 52.9583L249.182 52.3981L246.996 50.2083L248.662 48.546L251.94 51.8308L252.501 51.2706L248.681 47.443ZM249.379 58.3448L248.867 57.7739L254.161 53.0256L254.673 53.5966L254.308 59.1279L257.26 56.4803L257.772 57.0513L252.478 61.7996L251.966 61.2286L253.418 59.9265L253.811 54.3691L249.379 58.3448ZM259.352 58.8783L253.775 63.3314L257.149 67.5575L257.759 67.0709L254.863 63.4441L256.753 61.9354L258.683 64.3532L259.303 63.8584L257.372 61.4406L259.211 59.9724L262.107 63.5992L262.726 63.1044L259.352 58.8783ZM265.6 69.679L265.811 69.5279L265.948 68.8237L264.361 66.6018L263.582 66.4716L263.243 66.7133L263.278 72.0872C263.282 72.2278 263.217 72.3381 263.112 72.4136L262.487 72.8593C262.403 72.9197 262.317 72.9333 262.215 72.9257L261.129 72.7909C261.02 72.7728 260.914 72.7365 260.846 72.6413L259.064 70.1443C259.003 70.0596 258.982 69.9629 259 69.8541L259.185 68.7479C259.203 68.6391 259.254 68.5545 259.339 68.4941L259.667 68.2599L260.12 68.8948L259.919 69.0383L259.8 69.8105L261.393 72.043L262.161 72.1338L262.489 71.8997L262.454 66.5258C262.45 66.3852 262.515 66.2749 262.62 66.1994L263.255 65.7462C263.34 65.6857 263.437 65.6646 263.545 65.6828L264.652 65.8674C264.76 65.8856 264.834 65.9445 264.895 66.0292L266.662 68.505C266.723 68.5897 266.755 68.6788 266.736 68.7876L266.561 69.8394C266.543 69.9482 266.491 70.0328 266.407 70.0932L266.068 70.3349L265.6 69.679ZM269.513 72.7452L268.855 73.1635L269.266 73.8109L264.57 76.7948L264.159 76.1475L263.49 76.5728L264.731 78.5258L265.4 78.1005L264.988 77.4532L269.685 74.4692L270.096 75.1166L270.754 74.6982L269.513 72.7452ZM273.997 83.3346L274.224 83.2081L274.438 82.5235L273.11 80.1384L272.349 79.9221L271.986 80.1245L271.421 85.4687C271.409 85.6089 271.333 85.7112 271.219 85.7745L270.549 86.1477C270.458 86.1983 270.371 86.2022 270.271 86.1833L269.206 85.9281C269.1 85.8979 268.999 85.8501 268.942 85.7479L267.45 83.0675C267.399 82.9767 267.389 82.8782 267.419 82.7721L267.726 81.6934C267.756 81.5873 267.817 81.509 267.907 81.4584L268.26 81.2623L268.639 81.9437L268.423 82.0639L268.218 82.818L269.553 85.2144L270.306 85.3903L270.658 85.1943L271.223 79.85C271.234 79.7099 271.311 79.6075 271.424 79.5442L272.106 79.1647C272.197 79.1141 272.295 79.1039 272.401 79.1341L273.48 79.441C273.586 79.4712 273.653 79.5381 273.704 79.629L275.184 82.2866C275.234 82.3774 275.256 82.4696 275.226 82.5757L274.934 83.6013C274.904 83.7074 274.843 83.7857 274.752 83.8363L274.389 84.0387L273.997 83.3346ZM273.129 92.2271L272.814 91.5278L272.103 91.8482L273.513 94.9772C273.54 95.0365 273.611 95.1325 273.732 95.178L275.865 95.9565C275.951 95.989 276.067 95.9937 276.174 95.9456C276.245 95.9136 276.324 95.8353 276.363 95.7321L276.997 94.0063L278.686 94.6854C278.772 94.7179 278.888 94.7226 279.006 94.6692C279.089 94.6318 279.162 94.5707 279.201 94.4676L280.041 92.3777C280.056 92.3143 280.072 92.1928 280.019 92.0742L278.598 88.9215L277.899 89.2366L278.214 89.9359L273.129 92.2271ZM276.341 93.5319L275.766 95.1029L274.155 94.5027L273.45 92.9382L275.631 91.9555L276.341 93.5319ZM277.059 93.1942L276.354 91.6297L278.534 90.647L279.25 92.2353L278.622 93.8158L277.059 93.1942ZM279.163 102.047L277.768 98.4463L275.404 99.362L275.127 98.6467L279.225 97.0595C279.334 97.0173 279.459 97.0524 279.509 97.0747L282.535 98.3704C282.648 98.4103 282.709 98.4978 282.738 98.5706C282.785 98.6918 282.774 98.8076 282.737 98.8916L281.371 101.916C281.319 102.034 281.214 102.088 281.154 102.112L277.081 103.69L276.799 102.962L279.163 102.047ZM279.349 97.8479L278.452 98.1954L279.842 101.784L280.727 101.441L281.845 98.9302L279.349 97.8479ZM284.54 103.385L283.799 103.627L284.518 105.827L278.488 107.798L278.731 108.54L284.761 106.568L285.48 108.768L286.221 108.525L284.54 103.385ZM288.001 115.305L287.441 116.287L286.773 115.899L287.238 115.064L286.915 113.845L284.308 112.33L283.039 112.666L281.527 115.285L281.843 116.479L282.708 116.949L282.326 117.642L281.319 117.089C281.255 117.052 281.166 116.968 281.133 116.842L280.733 115.334C280.717 115.271 280.724 115.148 280.789 115.037L282.442 112.138C282.469 112.09 282.55 111.988 282.676 111.955L284.259 111.536C284.322 111.519 284.438 111.502 284.55 111.566L287.446 113.26C287.494 113.288 287.583 113.372 287.616 113.497L288.019 115.018C288.036 115.081 288.066 115.194 288.001 115.305ZM288.863 118.406L281.897 119.834L282.051 120.585L285.235 119.933L286.013 123.728L282.83 124.38L282.984 125.132L289.95 123.703L289.796 122.952L286.727 123.581L285.948 119.786L289.018 119.157L288.863 118.406ZM58.9277 51.1722L54.2077 45.8536L54.7814 45.3445L56.861 47.6878L59.7585 45.1164L57.6789 42.7731L58.2526 42.2639L62.9726 47.5826L62.3989 48.0917L60.2417 45.6609L57.3442 48.2323L59.5014 50.6631L58.9277 51.1722ZM53.0844 48.1448L51.9537 48.1507C51.825 48.1504 51.7421 48.2329 51.696 48.2787L50.5806 49.3878C50.4884 49.4795 50.4605 49.5989 50.4603 49.6541L50.4416 53.0092C50.4412 53.1379 50.5145 53.2301 50.5603 53.2762L51.7153 54.4377C51.8069 54.5299 51.9356 54.5486 51.9907 54.5488L55.3276 54.5307C55.4563 54.531 55.5668 54.4762 55.6129 54.4304L56.7191 53.3304C56.8113 53.2388 56.8392 53.1193 56.8394 53.0458L56.8151 51.8967L56.0245 51.9128L56.0493 52.8965L55.1735 53.7673L52.1492 53.7679L51.2234 52.8368L51.232 49.8217L52.1262 48.9326L53.0822 48.9169L53.0844 48.1448ZM43.9416 57.6287L43.3609 57.1079L46.9721 53.0822L47.5527 53.603L46.0075 55.3256L50.73 59.5617L50.2091 60.1423L45.4867 55.9062L43.9416 57.6287ZM42.47 65.4421L44.8906 62.4342L46.8655 64.0234L47.3545 63.4158L43.9516 60.6773C43.9009 60.6365 43.8016 60.5733 43.6737 60.5872L40.3715 60.9167C40.2801 60.9266 40.1744 60.975 40.0929 61.0763C40.044 61.1371 39.9991 61.2344 40.021 61.3522L40.4116 64.62C40.4175 64.6749 40.4497 64.8008 40.5408 64.8742L43.964 67.629L44.4449 67.0314L42.47 65.4421ZM41.911 64.9756L41.1615 64.3725L40.8505 61.6693L43.5841 61.3828L44.3234 61.9777L41.911 64.9756ZM38.9554 73.1916L39.4034 72.5691L34.8769 69.3112L34.4289 69.9338L33.8063 69.4857L35.8264 66.6791C35.9023 66.5736 36.0158 66.5271 36.0779 66.5077L38.3081 66.1908C38.4169 66.173 38.506 66.2051 38.5798 66.2583C38.6853 66.3342 38.7394 66.4372 38.7542 66.5279L39.0106 68.3302L40.8222 68.0163C40.9311 67.9986 41.0383 68.0277 41.1016 68.0732C41.1965 68.1416 41.2506 68.2446 41.2654 68.3353L41.6578 70.5718C41.6785 70.6988 41.6313 70.809 41.5933 70.8617L39.5885 73.6473L38.9554 73.1916ZM40.5759 68.8481L38.9276 69.1354L37.9176 70.5387L39.8591 71.936L40.8615 70.5433L40.5759 68.8481ZM37.274 70.0755L38.2764 68.6827L38.0331 67.018L36.3502 67.2643L35.3326 68.6782L37.274 70.0755ZM31.0454 76.1306L31.2686 76.2641L31.6823 75.5724L31.3253 75.3588C31.236 75.3055 31.1379 75.2922 31.0309 75.3191L29.9968 75.5792C29.8898 75.6061 29.8208 75.6708 29.7674 75.7601L28.2059 78.3707C28.1525 78.46 28.1282 78.5514 28.1551 78.6584L28.4286 79.746C28.4555 79.853 28.5135 79.9332 28.6028 79.9865L29.2722 80.3869C29.3837 80.4537 29.5108 80.4691 29.6378 80.4087L34.5486 78.226L34.8945 78.4328L35.1184 79.1727L33.7104 81.5268L32.9549 81.7262L32.7429 81.5994L32.3425 82.2688L32.6884 82.4757C32.7777 82.5291 32.8758 82.5423 32.9827 82.5154L34.0704 82.2419C34.1773 82.215 34.2575 82.157 34.3109 82.0677L35.8857 79.4347C35.9458 79.3343 35.9367 79.2229 35.9098 79.1159L35.5985 78.0662C35.5649 77.9704 35.518 77.8969 35.4287 77.8435L34.7705 77.4498C34.6589 77.3831 34.5318 77.3676 34.4048 77.428L29.4941 79.6108L29.137 79.3972L28.9443 78.6306L30.3456 76.2877L31.0454 76.1306ZM25.031 85.8026L24.3396 85.4416L25.4105 83.3903L26.1019 83.7513L25.747 84.4312L30.6793 87.0062L31.0342 86.3263L31.7372 86.6933L30.6663 88.7446L29.9633 88.3776L30.3183 87.6977L25.386 85.1227L25.031 85.8026ZM23.4043 90.2563L23.641 90.364L23.9749 89.6304L23.5963 89.4581C23.5017 89.415 23.4027 89.4128 23.2994 89.4514L22.3007 89.8253C22.1974 89.8639 22.1361 89.936 22.093 90.0306L20.8326 92.7993C20.7895 92.8939 20.7755 92.9875 20.8141 93.0908L21.2073 94.1411C21.246 94.2444 21.3126 94.3176 21.4073 94.3607L22.1172 94.6839C22.2355 94.7377 22.3635 94.7389 22.483 94.6647L27.1195 91.9475L27.4863 92.1145L27.7914 92.8248L26.6549 95.3212L25.9264 95.6038L25.7016 95.5014L25.3784 96.2113L25.7452 96.3783C25.8398 96.4214 25.9388 96.4236 26.0421 96.3849L27.0924 95.9918C27.1957 95.9531 27.2689 95.8864 27.312 95.7918L28.5832 92.9995C28.6316 92.893 28.6102 92.7833 28.5715 92.68L28.145 91.6716C28.1009 91.5801 28.0461 91.5123 27.9514 91.4692L27.2534 91.1514C27.135 91.0976 27.007 91.0964 26.8875 91.1706L22.2511 93.8878L21.8724 93.7154L21.5953 92.9751L22.7264 90.4904L23.4043 90.2563ZM24.0563 103.778L17.4111 101.175L19.3839 96.1396L20.1222 96.4289L18.4292 100.75L20.6201 101.608L21.7488 98.7276L22.4871 99.0169L21.3584 101.898L23.6098 102.78L25.3028 98.4586L26.0291 98.7431L24.0563 103.778ZM21.6971 110.807L21.9355 110.078L16.2764 108.228L21.2861 105.79L23.1395 106.396L23.3779 105.667L16.6191 103.457L16.3807 104.186L20.1493 105.418L15.1767 107.868L14.9383 108.597L21.6971 110.807ZM19.7355 117.988L12.8434 116.134L14.2481 110.912L15.0139 111.118L13.8084 115.599L16.0807 116.211L16.8843 113.223L17.6501 113.429L16.8464 116.417L19.1815 117.045L20.3869 112.563L21.1401 112.765L19.7355 117.988ZM16.1712 122.462L15.4586 122.313L16.0915 119.285L16.8041 119.434L16.6472 120.185L19.1159 120.7L18.5527 123.332C18.5394 123.396 18.5027 123.507 18.395 123.578L16.5616 124.788C16.5155 124.819 16.3977 124.874 16.2705 124.847L13.1146 124.188C13.051 124.174 12.9137 124.132 12.8432 124.025L11.6481 122.181C11.6051 122.132 11.5755 122.02 11.6021 121.893L11.9212 120.366C11.9345 120.302 11.9738 120.177 12.0815 120.107L13.2481 119.355L13.6682 120.014L12.6401 120.675L12.3875 121.884L13.4269 123.456L16.2646 124.049L17.8211 123.02L18.1827 121.289L16.4903 120.935L16.1712 122.462ZM38 150C38 100.738 69.8044 58.9037 114 43.9113V38.643L113.928 38.6663L109.652 25.468C122.51 21.2699 136.24 19 150.5 19L150.458 30H151.374L151.5 19.0037C157.801 19.0506 163.996 19.5407 170.056 20.4442L170 20.5L168.533 30H169.459L170.986 20.5863C180.156 22.0207 189.012 24.4027 197.45 27.629L192.31 40.8844C190.235 40.0791 188.131 39.3313 186 38.643V43.9113C230.196 58.9037 262 100.738 262 150C262 157.596 261.244 165.016 259.803 172.187L266.885 176.277L278.908 178.979C273.361 204.099 260.632 226.522 242.983 243.983L237.364 238.303L236.848 239.196L242.23 244.723C218.539 267.791 186.179 282 150.5 282C77.8746 282 19 223.125 19 150.5C19 113.934 33.9244 80.8545 58.014 57.0196L67.7145 66.8249C46.2797 88.0318 33 117.465 33 150C33 158.444 33.8945 166.679 35.5939 174.616L40.1563 171.982C38.7418 164.874 38 157.523 38 150ZM42.9048 170.395C41.6543 163.788 41 156.97 41 150C41 102.416 71.4906 61.954 114 47.0851V51.3339C73.7415 66.0267 45 104.657 45 150C45 156.232 45.5429 162.337 46.584 168.271L42.9048 170.395ZM114 54.5347V58.8236C77.6883 73.1727 52 108.586 52 150C52 154.936 52.3649 159.786 53.0692 164.526L49.3555 166.67C48.4638 161.246 48 155.677 48 150C48 106.34 75.4317 69.0861 114 54.5347ZM55.8697 162.909C55.2962 158.688 55 154.379 55 150C55 110.274 79.3833 76.2439 114 62.0583V66.3984C81.647 80.3487 59 112.53 59 150C59 153.634 59.213 157.218 59.6271 160.74L55.8697 162.909ZM62.465 159.102C62.1575 156.11 62 153.073 62 150C62 114.225 83.348 83.4357 114 69.6767V74.0836C85.6206 87.5651 66 116.491 66 150C66 152.323 66.0943 154.624 66.2793 156.899L62.465 159.102ZM69.1663 155.233C69.056 153.503 69 151.758 69 150C69 118.197 87.3291 90.674 114 77.4197V81.9164C89.613 94.8381 73 120.479 73 150C73 151 73.0191 151.996 73.0568 152.986L69.1663 155.233ZM76.0109 151.281C76.0036 150.855 76 150.428 76 150C76 122.199 91.331 97.9783 114 85.3318V89.9544C93.9035 102.029 80.3677 123.907 80.0074 148.974L76.0109 151.281ZM83.0569 147.213C83.9814 124.621 96.093 104.914 114 93.4834V98.2922C99.0096 108.748 88.7792 125.556 87.2103 144.815L83.0569 147.213ZM90.4076 142.969L94.8155 140.424C97.1073 127.123 104.091 115.428 114 107.103V101.996C101.193 111.616 92.36 126.242 90.4076 142.969ZM114 111.102C106.247 118.281 100.645 127.749 98.2662 138.432L103.146 135.615C105.326 128.506 109.079 122.085 114 116.758V111.102ZM114 121.362C111.141 124.95 108.808 128.976 107.117 133.322L113.145 129.842C113.42 129.34 113.705 128.844 114 128.354V121.362ZM257.056 170.601C258.332 163.93 259 157.043 259 150C259 102.416 228.509 61.954 186 47.0851V51.3339C226.259 66.0267 255 104.657 255 150C255 156.305 254.444 162.48 253.379 168.479L257.056 170.601ZM186 54.5347C224.568 69.0861 252 106.34 252 150C252 155.75 251.524 161.389 250.61 166.88L246.899 164.738C247.624 159.931 248 155.009 248 150C248 108.586 222.312 73.1727 186 58.8236V54.5347ZM186 62.0583C220.617 76.2439 245 110.274 245 150C245 154.452 244.694 158.833 244.101 163.122L240.347 160.955C240.778 157.363 241 153.708 241 150C241 112.53 218.353 80.3487 186 66.3984V62.0583ZM186 69.6767C216.652 83.4357 238 114.225 238 150C238 153.147 237.835 156.256 237.513 159.318L233.703 157.118C233.9 154.772 234 152.398 234 150C234 116.491 214.379 87.5651 186 74.0836V69.6767ZM186 77.4197C212.671 90.674 231 118.197 231 150C231 151.833 230.939 153.651 230.819 155.454L226.934 153.211C226.978 152.146 227 151.076 227 150C227 120.479 210.387 94.8381 186 81.9164V77.4197ZM186 85.3318C208.669 97.9783 224 122.199 224 150C224 150.504 223.995 151.007 223.985 151.508L219.996 149.205C219.715 124.042 206.158 102.066 186 89.9544V85.3318ZM186 93.4834C203.969 104.953 216.102 124.757 216.952 147.448L212.809 145.055C211.306 125.696 201.053 108.792 186 98.2922V93.4834ZM186 101.996V107.103C195.973 115.481 202.982 127.273 205.228 140.678L209.621 143.215C207.726 126.385 198.87 111.663 186 101.996ZM201.792 138.695C199.447 127.904 193.816 118.34 186 111.102V116.758C190.985 122.154 194.772 128.673 196.939 135.893L201.792 138.695ZM192.997 133.617C191.297 129.158 188.923 125.031 186 121.362V128.354C186.36 128.952 186.706 129.559 187.036 130.176L192.997 133.617ZM78.9908 232.699C98.0655 249.092 122.876 259 150 259C177.049 259 201.796 249.148 220.849 232.836L217.167 230.71C198.963 245.877 175.547 255 150 255C124.377 255 100.898 245.822 82.6703 230.574L78.9908 232.699ZM85.4422 228.974C103.026 243.366 125.505 252 150 252C174.419 252 196.833 243.419 214.393 229.109L210.676 226.962C193.988 240.137 172.912 248 150 248C127.011 248 105.871 240.084 89.1564 226.83L85.4422 228.974ZM91.9574 225.213C108.01 237.619 128.143 245 150 245C171.78 245 191.848 237.671 207.872 225.344L204.11 223.172C188.986 234.375 170.267 241 150 241C129.655 241 110.87 234.324 95.7157 223.043L91.9574 225.213ZM98.5545 221.404C113.023 231.847 130.793 238 150 238C169.129 238 186.832 231.897 201.269 221.531L197.448 219.325C183.948 228.583 167.606 234 150 234C132.315 234 115.906 228.535 102.37 219.201L98.5545 221.404ZM105.259 217.533C118.078 226.043 133.46 231 150 231C166.46 231 181.774 226.09 194.556 217.655L190.656 215.404C178.857 222.754 164.924 227 150 227C134.995 227 120.992 222.708 109.153 215.285L105.259 217.533ZM112.11 213.577C123.193 220.197 136.153 224 150 224C163.766 224 176.654 220.241 187.694 213.694L183.683 211.378C173.69 216.874 162.21 220 150 220C137.707 220 126.154 216.831 116.114 211.266L112.11 213.577ZM119.17 209.501C128.399 214.293 138.883 217 150 217C161.033 217 171.442 214.333 180.62 209.61L176.444 207.198C168.403 210.922 159.444 213 150 213C140.47 213 131.434 210.884 123.336 207.096L119.17 209.501ZM223.6 234.424C203.917 251.598 178.173 262 150 262C121.751 262 95.945 251.542 76.2421 234.286L71.6794 236.92C92.4168 255.618 119.879 267 150 267C180.046 267 207.446 255.675 228.165 237.06L223.6 234.424ZM150 210C158.234 210 166.081 208.341 173.224 205.34L168.779 202.773C162.909 204.863 156.587 206 150 206C143.321 206 136.915 204.831 130.975 202.686L126.546 205.243C133.751 208.306 141.678 210 150 210ZM150 203C155.317 203 160.451 202.217 165.293 200.76L160.348 197.905C157.012 198.622 153.55 199 150 199C146.348 199 142.788 198.6 139.364 197.842L134.447 200.681C139.365 202.189 144.588 203 150 203ZM143.375 195.527C145.538 195.839 147.75 196 150 196C152.139 196 154.244 195.854 156.305 195.571L150.119 192L150 192C149.829 192 149.659 191.999 149.489 191.997L143.375 195.527ZM60.8103 54.3328C74.4134 41.6405 90.7121 31.8002 108.754 25.7647L113.125 38.9296C96.973 44.2892 82.3832 53.0735 70.2161 64.4218L60.8103 54.3328ZM69.5337 65.0633C69.1503 65.4267 68.7693 65.7926 68.3909 66.1611L58.7701 56.2774C59.1931 55.8655 59.6189 55.4564 60.0475 55.0501L69.5337 65.0633ZM279.137 177.921L264.381 174.731C265.586 169.132 266.39 163.384 266.762 157.519L281.762 158.485C281.365 165.108 280.478 171.598 279.137 177.921ZM281.817 157.49L266.815 156.637C266.938 154.44 267 152.227 267 150C267 127.136 260.442 105.804 249.104 87.7824L261.5 80V79.9619C274.48 100.345 282 124.544 282 150.5C282 152.845 281.939 155.175 281.817 157.49ZM260.916 79.0535L248.574 86.9481C235.449 66.4707 216.117 50.3523 193.234 41.2473L198.488 28.0308C224.254 38.1347 246.056 56.1349 260.916 79.0535ZM184 32H116V128H184V32ZM185.732 131.732L151.732 190.622L234.87 238.622L268.87 179.732L185.732 131.732ZM147.87 190.622L113.87 131.732L30.732 179.732L64.732 238.622L147.87 190.622ZM166.286 45.488L169.058 42.788L166.304 40.178H164.918V39.098H166.52C166.664 39.098 166.79 39.152 166.898 39.26L169.814 42.032L172.784 39.26C172.892 39.152 173.018 39.098 173.162 39.098H174.764V40.178H173.378L170.588 42.806L173.36 45.488H174.746V46.568H173.144C173 46.568 172.874 46.514 172.766 46.406L169.832 43.562L166.88 46.406C166.772 46.514 166.646 46.568 166.502 46.568H164.9V45.488H166.286ZM169.4 49.8627H170.408V55.2267H169.4V49.8627ZM173.522 66.0094L174.62 64.8934C174.746 64.7674 174.746 64.6054 174.746 64.5154V62.3374C174.746 62.1574 174.656 62.0134 174.602 61.9594L171.326 58.6654C171.2 58.5394 171.038 58.5214 170.948 58.5214H168.68C168.5 58.5214 168.356 58.6294 168.302 58.6834L165.062 61.9774C164.936 62.1034 164.882 62.2654 164.882 62.3554V64.5154C164.882 64.6954 164.972 64.8394 165.044 64.9114L166.196 66.0094L166.952 65.2174L165.962 64.2814V62.5714L168.914 59.6014H170.732L173.684 62.5534V64.2994L172.766 65.2534L173.522 66.0094ZM164.9 68.2421H174.746V69.3041H170.408V74.6681H174.746V75.7301H164.9V74.6681H169.4V69.3041H164.9V68.2421ZM168.392 79.0248V84.3708H164.882V85.4508H170.93C171.02 85.4508 171.182 85.4328 171.308 85.3068L174.584 82.0848C174.674 81.9948 174.746 81.8508 174.746 81.6708C174.746 81.5628 174.71 81.4188 174.584 81.3108L171.326 78.1248C171.272 78.0708 171.128 77.9628 170.966 77.9628H164.882V79.0248H168.392ZM169.4 79.0428H170.732L173.414 81.6888L170.714 84.3708H169.4V79.0428ZM173.666 89.8255H174.746V93.0295H173.666V91.9675H165.962V93.0295H164.864V89.8255H165.962V90.8875H173.666V89.8255ZM164.9 97.4042V98.4662H173.144L167.6 103.83H164.9V104.892H174.746V103.83H169.256L174.746 98.4662V97.4042L164.9 97.4042ZM232.568 226.13L234.764 222.327L231.74 220.581L229.173 221.281L228.822 221.889L229.528 224.375L232.568 226.13ZM232.095 219.497L235.322 221.36L236.969 218.507L237.888 219.038L232.947 227.596L228.801 225.202C228.676 225.13 228.585 225.036 228.546 224.889L227.746 221.954C227.706 221.806 227.714 221.686 227.786 221.561L228.362 220.563C228.434 220.439 228.528 220.347 228.675 220.308L231.669 219.48C231.816 219.44 231.97 219.425 232.095 219.497ZM225.778 218.448L226.282 217.575L221.637 214.893L221.133 215.766L225.778 218.448ZM210.655 214.581L210.238 213.072L211.271 212.795L211.638 214.067L213.15 214.94L217.182 213.859L218.091 212.285L216.995 208.244L215.514 207.389L214.209 207.778L213.901 206.727L215.428 206.279C215.526 206.252 215.696 206.246 215.852 206.336L217.722 207.416C217.8 207.461 217.914 207.589 217.96 207.761L219.192 212.214C219.212 212.288 219.234 212.467 219.144 212.622L218.01 214.587C217.965 214.664 217.868 214.796 217.696 214.842L213.205 216.032C213.131 216.052 212.962 216.058 212.806 215.968L210.92 214.879C210.842 214.834 210.701 214.753 210.655 214.581ZM207.692 213.015L212.615 204.488L211.696 203.957L209.446 207.855L204.8 205.173L207.05 201.275L206.13 200.744L201.207 209.271L202.127 209.802L204.296 206.046L208.942 208.728L206.773 212.484L207.692 213.015ZM196.901 199.448L201.531 202.121L203.286 199.082L204.206 199.613L201.164 204.881C201.083 205.022 200.917 205.092 200.844 205.112L196.455 206.341C196.299 206.396 196.156 206.355 196.063 206.301C195.907 206.211 195.818 206.077 195.785 205.954L194.633 201.506C194.587 201.333 194.652 201.184 194.697 201.106L197.721 195.869L198.656 196.409L196.901 199.448ZM200.346 204.139L201.012 202.985L196.397 200.321L195.74 201.459L196.713 205.138L200.346 204.139ZM189 202.224L189.54 201.288L188.621 200.757L192.473 194.085L193.392 194.616L193.941 193.666L191.167 192.064L190.618 193.014L191.537 193.545L187.685 200.217L186.766 199.686L186.226 200.622L189 202.224ZM186.44 189.376L187.36 189.907L182.437 198.434L181.517 197.903L179.617 190.467L176.872 195.221L175.952 194.69L180.875 186.163L181.795 186.694L180.445 189.033L182.318 196.516L186.44 189.376ZM47.1591 180.96L45.6436 180.567C45.4715 180.521 45.3312 180.602 45.2532 180.647L43.367 181.736C43.2111 181.826 43.1314 181.976 43.1117 182.05L41.897 186.534C41.8509 186.706 41.9163 186.855 41.9613 186.933L43.0953 188.897C43.1853 189.053 43.3508 189.124 43.4246 189.144L47.8973 190.303C48.0694 190.349 48.2367 190.315 48.3146 190.27L50.1852 189.19C50.3411 189.1 50.4208 188.95 50.4472 188.851L50.8221 187.305L49.7582 187.046L49.4426 188.371L47.9617 189.226L43.9136 188.155L43.0046 186.58L44.0851 182.548L45.5972 181.675L46.8824 181.993L47.1591 180.96ZM52.0734 182.882L51.5694 182.01L56.2147 179.328L56.7187 180.2L52.0734 182.882ZM63.9958 171.239L62.4803 170.846C62.3082 170.8 62.1679 170.881 62.09 170.926L60.2038 172.015C60.0479 172.105 59.9682 172.255 59.9484 172.329L58.7337 176.813C58.6876 176.985 58.753 177.135 58.798 177.213L59.932 179.177C60.022 179.333 60.1876 179.403 60.2613 179.423L64.734 180.582C64.9061 180.628 65.0734 180.594 65.1514 180.549L67.022 179.469C67.1779 179.379 67.2576 179.229 67.2839 179.131L67.6588 177.584L66.5949 177.325L66.2793 178.651L64.7984 179.506L60.7503 178.434L59.8413 176.86L60.9218 172.827L62.4339 171.954L63.7191 172.272L63.9958 171.239ZM70.2404 177.59L65.3174 169.063L66.2371 168.532L68.4061 172.289L73.0515 169.607L70.8825 165.85L71.8022 165.319L76.7252 173.846L75.8055 174.377L73.5555 170.48L68.9101 173.162L71.1601 177.059L70.2404 177.59ZM77.8325 169.174L82.4623 166.501L84.2173 169.541L85.1526 169.001L82.1286 163.763C82.0836 163.685 81.987 163.554 81.8149 163.508L77.3865 162.282C77.2636 162.249 77.1029 162.259 76.947 162.349C76.8535 162.403 76.7468 162.506 76.7162 162.669L75.5861 167.083C75.5663 167.157 75.5448 167.336 75.6258 167.476L78.6678 172.745L79.5875 172.214L77.8325 169.174ZM77.3441 168.292L76.6781 167.139L77.6286 163.493L81.3013 164.49L81.9583 165.628L77.3441 168.292ZM84.5492 159.207L84.0092 158.271L86.7839 156.669L87.3239 157.605L86.4042 158.136L90.2562 164.807L91.1759 164.276L91.7249 165.227L88.9502 166.829L88.4012 165.878L89.3209 165.347L85.4689 158.676L84.5492 159.207ZM95.4955 163.009L96.4153 162.478L92.2932 155.338L99.7106 157.458L101.061 159.796L101.98 159.265L97.0573 150.738L96.1376 151.269L98.8826 156.023L91.4922 153.951L90.5725 154.482L95.4955 163.009Z" fill="white"/>
</svg>
